solid OpenSCAD_Model
  facet normal -1 0 0
    outer loop
      vertex -1.2 -21.2 20.6
      vertex -1.2 21.2 21.8
      vertex -1.2 21.2 20.6
    endloop
  endfacet
  facet normal -1 -0 0
    outer loop
      vertex -1.2 21.2 21.8
      vertex -1.2 -21.2 20.6
      vertex -1.2 -21.2 21.8
    endloop
  endfacet
  facet normal -0 0 1
    outer loop
      vertex -1.2 21.2 21.8
      vertex 31.2 -21.2 21.8
      vertex 31.2 21.2 21.8
    endloop
  endfacet
  facet normal 0 0 1
    outer loop
      vertex 31.2 -21.2 21.8
      vertex -1.2 21.2 21.8
      vertex -1.2 -21.2 21.8
    endloop
  endfacet
  facet normal 1 -0 0
    outer loop
      vertex 31.2 -21.2 21.8
      vertex 31.2 21.2 20.6
      vertex 31.2 21.2 21.8
    endloop
  endfacet
  facet normal 1 0 0
    outer loop
      vertex 31.2 21.2 20.6
      vertex 31.2 -21.2 21.8
      vertex 31.2 -21.2 20.6
    endloop
  endfacet
  facet normal 0 0 -1
    outer loop
      vertex 19 -18.6 20.6
      vertex 27 18.6 20.6
      vertex 27 -18.6 20.6
    endloop
  endfacet
  facet normal -0 0 -1
    outer loop
      vertex 27 18.6 20.6
      vertex 19 -18.6 20.6
      vertex 19 18.6 20.6
    endloop
  endfacet
  facet normal 0 0 -1
    outer loop
      vertex 27 -18.6 20.6
      vertex 31.2 -21.2 20.6
      vertex 27 -19.8 20.6
    endloop
  endfacet
  facet normal 0 0 -1
    outer loop
      vertex 31.2 -21.2 20.6
      vertex 19 -19.8 20.6
      vertex 27 -19.8 20.6
    endloop
  endfacet
  facet normal 0 0 -1
    outer loop
      vertex -1.2 -21.2 20.6
      vertex 19 -18.6 20.6
      vertex 19 -19.8 20.6
    endloop
  endfacet
  facet normal -0 0 -1
    outer loop
      vertex 19 -18.6 20.6
      vertex -1.2 -21.2 20.6
      vertex 19 18.6 20.6
    endloop
  endfacet
  facet normal 0 0 -1
    outer loop
      vertex -1.2 21.2 20.6
      vertex 19 18.6 20.6
      vertex -1.2 -21.2 20.6
    endloop
  endfacet
  facet normal 0 0 -1
    outer loop
      vertex -1.2 -21.2 20.6
      vertex 19 -19.8 20.6
      vertex 31.2 -21.2 20.6
    endloop
  endfacet
  facet normal 0 0 -1
    outer loop
      vertex 31.2 -21.2 20.6
      vertex 27 -18.6 20.6
      vertex 31.2 21.2 20.6
    endloop
  endfacet
  facet normal 0 0 -1
    outer loop
      vertex 27 18.6 20.6
      vertex 31.2 21.2 20.6
      vertex 27 -18.6 20.6
    endloop
  endfacet
  facet normal 0 0 -1
    outer loop
      vertex 27 19.8 20.6
      vertex 31.2 21.2 20.6
      vertex 27 18.6 20.6
    endloop
  endfacet
  facet normal 0 0 -1
    outer loop
      vertex 19 19.8 20.6
      vertex 31.2 21.2 20.6
      vertex 27 19.8 20.6
    endloop
  endfacet
  facet normal 0 0 -1
    outer loop
      vertex 19 19.8 20.6
      vertex -1.2 21.2 20.6
      vertex 31.2 21.2 20.6
    endloop
  endfacet
  facet normal 0 0 -1
    outer loop
      vertex 19 18.6 20.6
      vertex -1.2 21.2 20.6
      vertex 19 19.8 20.6
    endloop
  endfacet
  facet normal 0 -1 0
    outer loop
      vertex -1.2 -21.2 20.6
      vertex 31.2 -21.2 21.8
      vertex -1.2 -21.2 21.8
    endloop
  endfacet
  facet normal 0 -1 -0
    outer loop
      vertex 31.2 -21.2 21.8
      vertex -1.2 -21.2 20.6
      vertex 31.2 -21.2 20.6
    endloop
  endfacet
  facet normal 0 1 -0
    outer loop
      vertex 31.2 21.2 20.6
      vertex -1.2 21.2 21.8
      vertex 31.2 21.2 21.8
    endloop
  endfacet
  facet normal 0 1 0
    outer loop
      vertex -1.2 21.2 21.8
      vertex 31.2 21.2 20.6
      vertex -1.2 21.2 20.6
    endloop
  endfacet
  facet normal -1 0 0
    outer loop
      vertex 19 18.6 13.2
      vertex 19 19.8 20.6
      vertex 19 19.8 13.2
    endloop
  endfacet
  facet normal -1 -0 0
    outer loop
      vertex 19 19.8 20.6
      vertex 19 18.6 13.2
      vertex 19 18.6 20.6
    endloop
  endfacet
  facet normal 1 -0 0
    outer loop
      vertex 27 18.6 20.6
      vertex 27 19.8 13.2
      vertex 27 19.8 20.6
    endloop
  endfacet
  facet normal 1 0 0
    outer loop
      vertex 27 19.8 13.2
      vertex 27 18.6 20.6
      vertex 27 18.6 13.2
    endloop
  endfacet
  facet normal 0 1 0
    outer loop
      vertex 27 19.8 20.6
      vertex 23 19.8 19
      vertex 19 19.8 20.6
    endloop
  endfacet
  facet normal 0 1 0
    outer loop
      vertex 27 19.8 20.6
      vertex 23.564 19.8 18.9107
      vertex 23 19.8 19
    endloop
  endfacet
  facet normal 0 1 0
    outer loop
      vertex 27 19.8 20.6
      vertex 23.618 19.8 18.9021
      vertex 23.564 19.8 18.9107
    endloop
  endfacet
  facet normal 0 1 0
    outer loop
      vertex 27 19.8 20.6
      vertex 24.1756 19.8 18.618
      vertex 23.618 19.8 18.9021
    endloop
  endfacet
  facet normal 0 1 0
    outer loop
      vertex 27 19.8 20.6
      vertex 24.618 19.8 18.1756
      vertex 24.1756 19.8 18.618
    endloop
  endfacet
  facet normal 0 1 0
    outer loop
      vertex 27 19.8 20.6
      vertex 24.9021 19.8 17.618
      vertex 24.618 19.8 18.1756
    endloop
  endfacet
  facet normal 0 1 0
    outer loop
      vertex 27 19.8 20.6
      vertex 24.9107 19.8 17.564
      vertex 24.9021 19.8 17.618
    endloop
  endfacet
  facet normal 0 1 0
    outer loop
      vertex 27 19.8 20.6
      vertex 25 19.8 17
      vertex 24.9107 19.8 17.564
    endloop
  endfacet
  facet normal 0 1 -0
    outer loop
      vertex 27 19.8 13.2
      vertex 25 19.8 17
      vertex 27 19.8 20.6
    endloop
  endfacet
  facet normal 0 1 0
    outer loop
      vertex 25 19.8 17
      vertex 27 19.8 13.2
      vertex 24.9914 19.8 16.9459
    endloop
  endfacet
  facet normal 0 1 0
    outer loop
      vertex 23.0541 19.8 15.0086
      vertex 27 19.8 13.2
      vertex 23 19.8 15
    endloop
  endfacet
  facet normal 0 1 0
    outer loop
      vertex 23.618 19.8 15.0979
      vertex 27 19.8 13.2
      vertex 23.0541 19.8 15.0086
    endloop
  endfacet
  facet normal 0 1 0
    outer loop
      vertex 24.1756 19.8 15.382
      vertex 27 19.8 13.2
      vertex 23.618 19.8 15.0979
    endloop
  endfacet
  facet normal 0 1 0
    outer loop
      vertex 24.618 19.8 15.8244
      vertex 27 19.8 13.2
      vertex 24.1756 19.8 15.382
    endloop
  endfacet
  facet normal 0 1 0
    outer loop
      vertex 24.9021 19.8 16.382
      vertex 27 19.8 13.2
      vertex 24.618 19.8 15.8244
    endloop
  endfacet
  facet normal 0 1 0
    outer loop
      vertex 24.9914 19.8 16.9459
      vertex 27 19.8 13.2
      vertex 24.9021 19.8 16.382
    endloop
  endfacet
  facet normal 0 1 -0
    outer loop
      vertex 22.436 19.8 18.9107
      vertex 19 19.8 20.6
      vertex 23 19.8 19
    endloop
  endfacet
  facet normal 0 1 -0
    outer loop
      vertex 22.382 19.8 18.9021
      vertex 19 19.8 20.6
      vertex 22.436 19.8 18.9107
    endloop
  endfacet
  facet normal 0 1 -0
    outer loop
      vertex 21.8244 19.8 18.618
      vertex 19 19.8 20.6
      vertex 22.382 19.8 18.9021
    endloop
  endfacet
  facet normal 0 1 -0
    outer loop
      vertex 21.382 19.8 18.1756
      vertex 19 19.8 20.6
      vertex 21.8244 19.8 18.618
    endloop
  endfacet
  facet normal 0 1 -0
    outer loop
      vertex 21.0979 19.8 17.618
      vertex 19 19.8 20.6
      vertex 21.382 19.8 18.1756
    endloop
  endfacet
  facet normal 0 1 -0
    outer loop
      vertex 21.0893 19.8 17.564
      vertex 19 19.8 20.6
      vertex 21.0979 19.8 17.618
    endloop
  endfacet
  facet normal 0 1 -0
    outer loop
      vertex 21 19.8 17
      vertex 19 19.8 20.6
      vertex 21.0893 19.8 17.564
    endloop
  endfacet
  facet normal 0 1 0
    outer loop
      vertex 19 19.8 13.2
      vertex 21 19.8 17
      vertex 21.0086 19.8 16.9459
    endloop
  endfacet
  facet normal 0 1 0
    outer loop
      vertex 19 19.8 13.2
      vertex 21.0086 19.8 16.9459
      vertex 21.0979 19.8 16.382
    endloop
  endfacet
  facet normal 0 1 0
    outer loop
      vertex 19 19.8 13.2
      vertex 23 19.8 15
      vertex 27 19.8 13.2
    endloop
  endfacet
  facet normal 0 1 0
    outer loop
      vertex 23 19.8 15
      vertex 19 19.8 13.2
      vertex 22.9459 19.8 15.0086
    endloop
  endfacet
  facet normal 0 1 0
    outer loop
      vertex 21 19.8 17
      vertex 19 19.8 13.2
      vertex 19 19.8 20.6
    endloop
  endfacet
  facet normal 0 1 0
    outer loop
      vertex 21.382 19.8 15.8244
      vertex 19 19.8 13.2
      vertex 21.0979 19.8 16.382
    endloop
  endfacet
  facet normal 0 1 0
    outer loop
      vertex 21.8244 19.8 15.382
      vertex 19 19.8 13.2
      vertex 21.382 19.8 15.8244
    endloop
  endfacet
  facet normal 0 1 0
    outer loop
      vertex 22.382 19.8 15.0979
      vertex 19 19.8 13.2
      vertex 21.8244 19.8 15.382
    endloop
  endfacet
  facet normal 0 1 0
    outer loop
      vertex 22.9459 19.8 15.0086
      vertex 19 19.8 13.2
      vertex 22.382 19.8 15.0979
    endloop
  endfacet
  facet normal 0 0 -1
    outer loop
      vertex 19 18.6 13.2
      vertex 27 19.8 13.2
      vertex 27 18.6 13.2
    endloop
  endfacet
  facet normal -0 0 -1
    outer loop
      vertex 27 19.8 13.2
      vertex 19 18.6 13.2
      vertex 19 19.8 13.2
    endloop
  endfacet
  facet normal 0 -1 0
    outer loop
      vertex 19 18.6 20.6
      vertex 23 18.6 19
      vertex 27 18.6 20.6
    endloop
  endfacet
  facet normal 0 -1 0
    outer loop
      vertex 19 18.6 20.6
      vertex 22.4515 18.6 18.9131
      vertex 23 18.6 19
    endloop
  endfacet
  facet normal 0 -1 0
    outer loop
      vertex 19 18.6 20.6
      vertex 22.382 18.6 18.9021
      vertex 22.4515 18.6 18.9131
    endloop
  endfacet
  facet normal 0 -1 0
    outer loop
      vertex 19 18.6 20.6
      vertex 21.8244 18.6 18.618
      vertex 22.382 18.6 18.9021
    endloop
  endfacet
  facet normal 0 -1 0
    outer loop
      vertex 19 18.6 20.6
      vertex 21.382 18.6 18.1756
      vertex 21.8244 18.6 18.618
    endloop
  endfacet
  facet normal 0 -1 0
    outer loop
      vertex 19 18.6 20.6
      vertex 21.0979 18.6 17.618
      vertex 21.382 18.6 18.1756
    endloop
  endfacet
  facet normal 0 -1 0
    outer loop
      vertex 19 18.6 20.6
      vertex 21.0869 18.6 17.5485
      vertex 21.0979 18.6 17.618
    endloop
  endfacet
  facet normal 0 -1 0
    outer loop
      vertex 19 18.6 20.6
      vertex 21 18.6 17
      vertex 21.0869 18.6 17.5485
    endloop
  endfacet
  facet normal 0 -1 0
    outer loop
      vertex 19 18.6 13.2
      vertex 21 18.6 17
      vertex 19 18.6 20.6
    endloop
  endfacet
  facet normal 0 -1 -0
    outer loop
      vertex 21 18.6 17
      vertex 19 18.6 13.2
      vertex 21.011 18.6 16.9305
    endloop
  endfacet
  facet normal 0 -1 -0
    outer loop
      vertex 22.9305 18.6 15.011
      vertex 19 18.6 13.2
      vertex 23 18.6 15
    endloop
  endfacet
  facet normal 0 -1 -0
    outer loop
      vertex 22.382 18.6 15.0979
      vertex 19 18.6 13.2
      vertex 22.9305 18.6 15.011
    endloop
  endfacet
  facet normal 0 -1 -0
    outer loop
      vertex 21.8244 18.6 15.382
      vertex 19 18.6 13.2
      vertex 22.382 18.6 15.0979
    endloop
  endfacet
  facet normal 0 -1 -0
    outer loop
      vertex 21.382 18.6 15.8244
      vertex 19 18.6 13.2
      vertex 21.8244 18.6 15.382
    endloop
  endfacet
  facet normal 0 -1 -0
    outer loop
      vertex 21.0979 18.6 16.382
      vertex 19 18.6 13.2
      vertex 21.382 18.6 15.8244
    endloop
  endfacet
  facet normal 0 -1 -0
    outer loop
      vertex 21.011 18.6 16.9305
      vertex 19 18.6 13.2
      vertex 21.0979 18.6 16.382
    endloop
  endfacet
  facet normal 0 -1 0
    outer loop
      vertex 23.5485 18.6 18.9131
      vertex 27 18.6 20.6
      vertex 23 18.6 19
    endloop
  endfacet
  facet normal 0 -1 0
    outer loop
      vertex 23.618 18.6 18.9021
      vertex 27 18.6 20.6
      vertex 23.5485 18.6 18.9131
    endloop
  endfacet
  facet normal 0 -1 0
    outer loop
      vertex 24.1756 18.6 18.618
      vertex 27 18.6 20.6
      vertex 23.618 18.6 18.9021
    endloop
  endfacet
  facet normal 0 -1 0
    outer loop
      vertex 24.618 18.6 18.1756
      vertex 27 18.6 20.6
      vertex 24.1756 18.6 18.618
    endloop
  endfacet
  facet normal 0 -1 0
    outer loop
      vertex 24.9021 18.6 17.618
      vertex 27 18.6 20.6
      vertex 24.618 18.6 18.1756
    endloop
  endfacet
  facet normal 0 -1 0
    outer loop
      vertex 24.9131 18.6 17.5485
      vertex 27 18.6 20.6
      vertex 24.9021 18.6 17.618
    endloop
  endfacet
  facet normal 0 -1 0
    outer loop
      vertex 25 18.6 17
      vertex 27 18.6 20.6
      vertex 24.9131 18.6 17.5485
    endloop
  endfacet
  facet normal 0 -1 0
    outer loop
      vertex 27 18.6 13.2
      vertex 25 18.6 17
      vertex 24.989 18.6 16.9305
    endloop
  endfacet
  facet normal 0 -1 0
    outer loop
      vertex 27 18.6 13.2
      vertex 24.989 18.6 16.9305
      vertex 24.9021 18.6 16.382
    endloop
  endfacet
  facet normal 0 -1 0
    outer loop
      vertex 27 18.6 13.2
      vertex 23 18.6 15
      vertex 19 18.6 13.2
    endloop
  endfacet
  facet normal 0 -1 0
    outer loop
      vertex 23 18.6 15
      vertex 27 18.6 13.2
      vertex 23.0695 18.6 15.011
    endloop
  endfacet
  facet normal 0 -1 0
    outer loop
      vertex 25 18.6 17
      vertex 27 18.6 13.2
      vertex 27 18.6 20.6
    endloop
  endfacet
  facet normal 0 -1 0
    outer loop
      vertex 24.618 18.6 15.8244
      vertex 27 18.6 13.2
      vertex 24.9021 18.6 16.382
    endloop
  endfacet
  facet normal 0 -1 0
    outer loop
      vertex 24.1756 18.6 15.382
      vertex 27 18.6 13.2
      vertex 24.618 18.6 15.8244
    endloop
  endfacet
  facet normal 0 -1 0
    outer loop
      vertex 23.618 18.6 15.0979
      vertex 27 18.6 13.2
      vertex 24.1756 18.6 15.382
    endloop
  endfacet
  facet normal 0 -1 0
    outer loop
      vertex 23.0695 18.6 15.011
      vertex 27 18.6 13.2
      vertex 23.618 18.6 15.0979
    endloop
  endfacet
  facet normal -1 0 0
    outer loop
      vertex 19 -19.8 13.2
      vertex 19 -18.6 20.6
      vertex 19 -18.6 13.2
    endloop
  endfacet
  facet normal -1 -0 0
    outer loop
      vertex 19 -18.6 20.6
      vertex 19 -19.8 13.2
      vertex 19 -19.8 20.6
    endloop
  endfacet
  facet normal 1 -0 0
    outer loop
      vertex 27 -19.8 20.6
      vertex 27 -18.6 13.2
      vertex 27 -18.6 20.6
    endloop
  endfacet
  facet normal 1 0 0
    outer loop
      vertex 27 -18.6 13.2
      vertex 27 -19.8 20.6
      vertex 27 -19.8 13.2
    endloop
  endfacet
  facet normal 0 1 0
    outer loop
      vertex 27 -18.6 20.6
      vertex 23 -18.6 19
      vertex 19 -18.6 20.6
    endloop
  endfacet
  facet normal 0 1 0
    outer loop
      vertex 27 -18.6 20.6
      vertex 23.0695 -18.6 18.989
      vertex 23 -18.6 19
    endloop
  endfacet
  facet normal 0 1 0
    outer loop
      vertex 27 -18.6 20.6
      vertex 23.618 -18.6 18.9021
      vertex 23.0695 -18.6 18.989
    endloop
  endfacet
  facet normal 0 1 0
    outer loop
      vertex 27 -18.6 20.6
      vertex 24.1756 -18.6 18.618
      vertex 23.618 -18.6 18.9021
    endloop
  endfacet
  facet normal 0 1 0
    outer loop
      vertex 27 -18.6 20.6
      vertex 24.618 -18.6 18.1756
      vertex 24.1756 -18.6 18.618
    endloop
  endfacet
  facet normal 0 1 0
    outer loop
      vertex 27 -18.6 20.6
      vertex 24.9021 -18.6 17.618
      vertex 24.618 -18.6 18.1756
    endloop
  endfacet
  facet normal 0 1 0
    outer loop
      vertex 27 -18.6 20.6
      vertex 24.989 -18.6 17.0695
      vertex 24.9021 -18.6 17.618
    endloop
  endfacet
  facet normal 0 1 0
    outer loop
      vertex 27 -18.6 20.6
      vertex 25 -18.6 17
      vertex 24.989 -18.6 17.0695
    endloop
  endfacet
  facet normal 0 1 -0
    outer loop
      vertex 27 -18.6 13.2
      vertex 25 -18.6 17
      vertex 27 -18.6 20.6
    endloop
  endfacet
  facet normal 0 1 0
    outer loop
      vertex 25 -18.6 17
      vertex 27 -18.6 13.2
      vertex 24.9131 -18.6 16.4515
    endloop
  endfacet
  facet normal 0 1 0
    outer loop
      vertex 27 -18.6 13.2
      vertex 23.5485 -18.6 15.0869
      vertex 23.618 -18.6 15.0979
    endloop
  endfacet
  facet normal 0 1 0
    outer loop
      vertex 23.5485 -18.6 15.0869
      vertex 27 -18.6 13.2
      vertex 23 -18.6 15
    endloop
  endfacet
  facet normal 0 1 0
    outer loop
      vertex 24.1756 -18.6 15.382
      vertex 27 -18.6 13.2
      vertex 23.618 -18.6 15.0979
    endloop
  endfacet
  facet normal 0 1 0
    outer loop
      vertex 24.618 -18.6 15.8244
      vertex 27 -18.6 13.2
      vertex 24.1756 -18.6 15.382
    endloop
  endfacet
  facet normal 0 1 0
    outer loop
      vertex 24.9021 -18.6 16.382
      vertex 27 -18.6 13.2
      vertex 24.618 -18.6 15.8244
    endloop
  endfacet
  facet normal 0 1 0
    outer loop
      vertex 24.9131 -18.6 16.4515
      vertex 27 -18.6 13.2
      vertex 24.9021 -18.6 16.382
    endloop
  endfacet
  facet normal 0 1 -0
    outer loop
      vertex 22.9305 -18.6 18.989
      vertex 19 -18.6 20.6
      vertex 23 -18.6 19
    endloop
  endfacet
  facet normal 0 1 -0
    outer loop
      vertex 22.382 -18.6 18.9021
      vertex 19 -18.6 20.6
      vertex 22.9305 -18.6 18.989
    endloop
  endfacet
  facet normal 0 1 -0
    outer loop
      vertex 21.8244 -18.6 18.618
      vertex 19 -18.6 20.6
      vertex 22.382 -18.6 18.9021
    endloop
  endfacet
  facet normal 0 1 -0
    outer loop
      vertex 21.382 -18.6 18.1756
      vertex 19 -18.6 20.6
      vertex 21.8244 -18.6 18.618
    endloop
  endfacet
  facet normal 0 1 -0
    outer loop
      vertex 21.0979 -18.6 17.618
      vertex 19 -18.6 20.6
      vertex 21.382 -18.6 18.1756
    endloop
  endfacet
  facet normal 0 1 -0
    outer loop
      vertex 21.011 -18.6 17.0695
      vertex 19 -18.6 20.6
      vertex 21.0979 -18.6 17.618
    endloop
  endfacet
  facet normal 0 1 -0
    outer loop
      vertex 21 -18.6 17
      vertex 19 -18.6 20.6
      vertex 21.011 -18.6 17.0695
    endloop
  endfacet
  facet normal 0 1 0
    outer loop
      vertex 19 -18.6 13.2
      vertex 21 -18.6 17
      vertex 21.0869 -18.6 16.4515
    endloop
  endfacet
  facet normal 0 1 0
    outer loop
      vertex 19 -18.6 13.2
      vertex 21.0869 -18.6 16.4515
      vertex 21.0979 -18.6 16.382
    endloop
  endfacet
  facet normal 0 1 0
    outer loop
      vertex 19 -18.6 13.2
      vertex 22.4515 -18.6 15.0869
      vertex 23 -18.6 15
    endloop
  endfacet
  facet normal 0 1 0
    outer loop
      vertex 19 -18.6 13.2
      vertex 23 -18.6 15
      vertex 27 -18.6 13.2
    endloop
  endfacet
  facet normal 0 1 0
    outer loop
      vertex 21 -18.6 17
      vertex 19 -18.6 13.2
      vertex 19 -18.6 20.6
    endloop
  endfacet
  facet normal 0 1 0
    outer loop
      vertex 21.382 -18.6 15.8244
      vertex 19 -18.6 13.2
      vertex 21.0979 -18.6 16.382
    endloop
  endfacet
  facet normal 0 1 0
    outer loop
      vertex 21.8244 -18.6 15.382
      vertex 19 -18.6 13.2
      vertex 21.382 -18.6 15.8244
    endloop
  endfacet
  facet normal 0 1 0
    outer loop
      vertex 22.382 -18.6 15.0979
      vertex 19 -18.6 13.2
      vertex 21.8244 -18.6 15.382
    endloop
  endfacet
  facet normal 0 1 0
    outer loop
      vertex 22.4515 -18.6 15.0869
      vertex 19 -18.6 13.2
      vertex 22.382 -18.6 15.0979
    endloop
  endfacet
  facet normal 0 0 -1
    outer loop
      vertex 19 -19.8 13.2
      vertex 27 -18.6 13.2
      vertex 27 -19.8 13.2
    endloop
  endfacet
  facet normal -0 0 -1
    outer loop
      vertex 27 -18.6 13.2
      vertex 19 -19.8 13.2
      vertex 19 -18.6 13.2
    endloop
  endfacet
  facet normal 0 -1 0
    outer loop
      vertex 19 -19.8 20.6
      vertex 23 -19.8 19
      vertex 27 -19.8 20.6
    endloop
  endfacet
  facet normal 0 -1 0
    outer loop
      vertex 19 -19.8 20.6
      vertex 22.9459 -19.8 18.9914
      vertex 23 -19.8 19
    endloop
  endfacet
  facet normal 0 -1 0
    outer loop
      vertex 19 -19.8 20.6
      vertex 22.382 -19.8 18.9021
      vertex 22.9459 -19.8 18.9914
    endloop
  endfacet
  facet normal 0 -1 0
    outer loop
      vertex 19 -19.8 20.6
      vertex 21.8244 -19.8 18.618
      vertex 22.382 -19.8 18.9021
    endloop
  endfacet
  facet normal 0 -1 0
    outer loop
      vertex 19 -19.8 20.6
      vertex 21.382 -19.8 18.1756
      vertex 21.8244 -19.8 18.618
    endloop
  endfacet
  facet normal 0 -1 0
    outer loop
      vertex 19 -19.8 20.6
      vertex 21.0979 -19.8 17.618
      vertex 21.382 -19.8 18.1756
    endloop
  endfacet
  facet normal 0 -1 0
    outer loop
      vertex 19 -19.8 20.6
      vertex 21.0086 -19.8 17.0541
      vertex 21.0979 -19.8 17.618
    endloop
  endfacet
  facet normal 0 -1 0
    outer loop
      vertex 19 -19.8 20.6
      vertex 21 -19.8 17
      vertex 21.0086 -19.8 17.0541
    endloop
  endfacet
  facet normal 0 -1 0
    outer loop
      vertex 19 -19.8 13.2
      vertex 21 -19.8 17
      vertex 19 -19.8 20.6
    endloop
  endfacet
  facet normal 0 -1 -0
    outer loop
      vertex 21 -19.8 17
      vertex 19 -19.8 13.2
      vertex 21.0893 -19.8 16.436
    endloop
  endfacet
  facet normal 0 -1 -0
    outer loop
      vertex 22.436 -19.8 15.0893
      vertex 19 -19.8 13.2
      vertex 23 -19.8 15
    endloop
  endfacet
  facet normal 0 -1 -0
    outer loop
      vertex 22.382 -19.8 15.0979
      vertex 19 -19.8 13.2
      vertex 22.436 -19.8 15.0893
    endloop
  endfacet
  facet normal 0 -1 -0
    outer loop
      vertex 21.8244 -19.8 15.382
      vertex 19 -19.8 13.2
      vertex 22.382 -19.8 15.0979
    endloop
  endfacet
  facet normal 0 -1 -0
    outer loop
      vertex 21.382 -19.8 15.8244
      vertex 19 -19.8 13.2
      vertex 21.8244 -19.8 15.382
    endloop
  endfacet
  facet normal 0 -1 -0
    outer loop
      vertex 21.0979 -19.8 16.382
      vertex 19 -19.8 13.2
      vertex 21.382 -19.8 15.8244
    endloop
  endfacet
  facet normal 0 -1 -0
    outer loop
      vertex 21.0893 -19.8 16.436
      vertex 19 -19.8 13.2
      vertex 21.0979 -19.8 16.382
    endloop
  endfacet
  facet normal 0 -1 0
    outer loop
      vertex 23.0541 -19.8 18.9914
      vertex 27 -19.8 20.6
      vertex 23 -19.8 19
    endloop
  endfacet
  facet normal 0 -1 0
    outer loop
      vertex 23.618 -19.8 18.9021
      vertex 27 -19.8 20.6
      vertex 23.0541 -19.8 18.9914
    endloop
  endfacet
  facet normal 0 -1 0
    outer loop
      vertex 24.1756 -19.8 18.618
      vertex 27 -19.8 20.6
      vertex 23.618 -19.8 18.9021
    endloop
  endfacet
  facet normal 0 -1 0
    outer loop
      vertex 24.618 -19.8 18.1756
      vertex 27 -19.8 20.6
      vertex 24.1756 -19.8 18.618
    endloop
  endfacet
  facet normal 0 -1 0
    outer loop
      vertex 24.9021 -19.8 17.618
      vertex 27 -19.8 20.6
      vertex 24.618 -19.8 18.1756
    endloop
  endfacet
  facet normal 0 -1 0
    outer loop
      vertex 24.9914 -19.8 17.0541
      vertex 27 -19.8 20.6
      vertex 24.9021 -19.8 17.618
    endloop
  endfacet
  facet normal 0 -1 0
    outer loop
      vertex 25 -19.8 17
      vertex 27 -19.8 20.6
      vertex 24.9914 -19.8 17.0541
    endloop
  endfacet
  facet normal 0 -1 0
    outer loop
      vertex 27 -19.8 13.2
      vertex 25 -19.8 17
      vertex 24.9107 -19.8 16.436
    endloop
  endfacet
  facet normal 0 -1 0
    outer loop
      vertex 27 -19.8 13.2
      vertex 24.9107 -19.8 16.436
      vertex 24.9021 -19.8 16.382
    endloop
  endfacet
  facet normal 0 -1 0
    outer loop
      vertex 27 -19.8 13.2
      vertex 23.564 -19.8 15.0893
      vertex 23 -19.8 15
    endloop
  endfacet
  facet normal 0 -1 0
    outer loop
      vertex 27 -19.8 13.2
      vertex 23 -19.8 15
      vertex 19 -19.8 13.2
    endloop
  endfacet
  facet normal 0 -1 0
    outer loop
      vertex 25 -19.8 17
      vertex 27 -19.8 13.2
      vertex 27 -19.8 20.6
    endloop
  endfacet
  facet normal 0 -1 0
    outer loop
      vertex 24.618 -19.8 15.8244
      vertex 27 -19.8 13.2
      vertex 24.9021 -19.8 16.382
    endloop
  endfacet
  facet normal 0 -1 0
    outer loop
      vertex 24.1756 -19.8 15.382
      vertex 27 -19.8 13.2
      vertex 24.618 -19.8 15.8244
    endloop
  endfacet
  facet normal 0 -1 0
    outer loop
      vertex 23.618 -19.8 15.0979
      vertex 27 -19.8 13.2
      vertex 24.1756 -19.8 15.382
    endloop
  endfacet
  facet normal 0 -1 0
    outer loop
      vertex 23.564 -19.8 15.0893
      vertex 27 -19.8 13.2
      vertex 23.618 -19.8 15.0979
    endloop
  endfacet
  facet normal -0.987687 2.0206e-007 -0.156441
    outer loop
      vertex 24.9021 18.6 17.618
      vertex 24.9107 19.8 17.564
      vertex 24.9131 18.6 17.5485
    endloop
  endfacet
  facet normal -0.987687 0 -0.156446
    outer loop
      vertex 24.9107 19.8 17.564
      vertex 24.9021 18.6 17.618
      vertex 24.9021 19.8 17.618
    endloop
  endfacet
  facet normal -0.987689 9.30328e-008 -0.156433
    outer loop
      vertex 24.9021 -19.8 17.618
      vertex 24.989 -18.6 17.0695
      vertex 24.9914 -19.8 17.0541
    endloop
  endfacet
  facet normal -0.987689 0 -0.156433
    outer loop
      vertex 24.989 -18.6 17.0695
      vertex 24.9021 -19.8 17.618
      vertex 24.9021 -18.6 17.618
    endloop
  endfacet
  facet normal -0.891007 0 -0.45399
    outer loop
      vertex 24.9021 18.6 17.618
      vertex 24.618 19.8 18.1756
      vertex 24.9021 19.8 17.618
    endloop
  endfacet
  facet normal -0.891007 -0 -0.45399
    outer loop
      vertex 24.618 19.8 18.1756
      vertex 24.9021 18.6 17.618
      vertex 24.618 18.6 18.1756
    endloop
  endfacet
  facet normal -0.891007 0 -0.45399
    outer loop
      vertex 24.9021 -19.8 17.618
      vertex 24.618 -18.6 18.1756
      vertex 24.9021 -18.6 17.618
    endloop
  endfacet
  facet normal -0.891007 -0 -0.45399
    outer loop
      vertex 24.618 -18.6 18.1756
      vertex 24.9021 -19.8 17.618
      vertex 24.618 -19.8 18.1756
    endloop
  endfacet
  facet normal -0.987688 0 -0.156434
    outer loop
      vertex 24.9131 18.6 17.5485
      vertex 25 19.8 17
      vertex 25 18.6 17
    endloop
  endfacet
  facet normal -0.987689 9.98452e-008 -0.156433
    outer loop
      vertex 25 19.8 17
      vertex 24.9131 18.6 17.5485
      vertex 24.9107 19.8 17.564
    endloop
  endfacet
  facet normal -0.987686 0 -0.156451
    outer loop
      vertex 24.9914 -19.8 17.0541
      vertex 25 -18.6 17
      vertex 25 -19.8 17
    endloop
  endfacet
  facet normal -0.987687 2.57319e-007 -0.156445
    outer loop
      vertex 25 -18.6 17
      vertex 24.9914 -19.8 17.0541
      vertex 24.989 -18.6 17.0695
    endloop
  endfacet
  facet normal 0.987689 -5.6833e-008 0.15643
    outer loop
      vertex 21.011 18.6 16.9305
      vertex 21.0979 19.8 16.382
      vertex 21.0086 19.8 16.9459
    endloop
  endfacet
  facet normal 0.987689 0 0.15643
    outer loop
      vertex 21.0979 19.8 16.382
      vertex 21.011 18.6 16.9305
      vertex 21.0979 18.6 16.382
    endloop
  endfacet
  facet normal 0.987691 9.15587e-008 0.156419
    outer loop
      vertex 21.0893 -19.8 16.436
      vertex 21.0979 -18.6 16.382
      vertex 21.0869 -18.6 16.4515
    endloop
  endfacet
  facet normal 0.987691 0 0.156417
    outer loop
      vertex 21.0979 -18.6 16.382
      vertex 21.0893 -19.8 16.436
      vertex 21.0979 -19.8 16.382
    endloop
  endfacet
  facet normal 0.156445 2.57319e-007 -0.987687
    outer loop
      vertex 22.382 18.6 18.9021
      vertex 22.436 19.8 18.9107
      vertex 22.4515 18.6 18.9131
    endloop
  endfacet
  facet normal 0.156451 0 -0.987686
    outer loop
      vertex 22.436 19.8 18.9107
      vertex 22.382 18.6 18.9021
      vertex 22.382 19.8 18.9021
    endloop
  endfacet
  facet normal 0.156433 9.30328e-008 -0.987689
    outer loop
      vertex 22.382 -19.8 18.9021
      vertex 22.9305 -18.6 18.989
      vertex 22.9459 -19.8 18.9914
    endloop
  endfacet
  facet normal 0.156433 0 -0.987689
    outer loop
      vertex 22.9305 -18.6 18.989
      vertex 22.382 -19.8 18.9021
      vertex 22.382 -18.6 18.9021
    endloop
  endfacet
  facet normal -0.156435 0 0.987688
    outer loop
      vertex 23.618 19.8 15.0979
      vertex 23.0695 18.6 15.011
      vertex 23.618 18.6 15.0979
    endloop
  endfacet
  facet normal -0.156435 -1.14539e-007 0.987688
    outer loop
      vertex 23.0695 18.6 15.011
      vertex 23.618 19.8 15.0979
      vertex 23.0541 19.8 15.0086
    endloop
  endfacet
  facet normal -0.156429 0 0.987689
    outer loop
      vertex 23.618 -18.6 15.0979
      vertex 23.564 -19.8 15.0893
      vertex 23.618 -19.8 15.0979
    endloop
  endfacet
  facet normal -0.156428 -2.76262e-008 0.987689
    outer loop
      vertex 23.564 -19.8 15.0893
      vertex 23.618 -18.6 15.0979
      vertex 23.5485 -18.6 15.0869
    endloop
  endfacet
  facet normal -0.45399 0 -0.891007
    outer loop
      vertex 23.618 18.6 18.9021
      vertex 24.1756 19.8 18.618
      vertex 24.1756 18.6 18.618
    endloop
  endfacet
  facet normal -0.45399 0 -0.891007
    outer loop
      vertex 24.1756 19.8 18.618
      vertex 23.618 18.6 18.9021
      vertex 23.618 19.8 18.9021
    endloop
  endfacet
  facet normal -0.45399 0 -0.891007
    outer loop
      vertex 23.618 -19.8 18.9021
      vertex 24.1756 -18.6 18.618
      vertex 24.1756 -19.8 18.618
    endloop
  endfacet
  facet normal -0.45399 0 -0.891007
    outer loop
      vertex 24.1756 -18.6 18.618
      vertex 23.618 -19.8 18.9021
      vertex 23.618 -18.6 18.9021
    endloop
  endfacet
  facet normal -0.156446 0 -0.987687
    outer loop
      vertex 23.618 18.6 18.9021
      vertex 23.564 19.8 18.9107
      vertex 23.618 19.8 18.9021
    endloop
  endfacet
  facet normal -0.156441 2.0206e-007 -0.987687
    outer loop
      vertex 23.564 19.8 18.9107
      vertex 23.618 18.6 18.9021
      vertex 23.5485 18.6 18.9131
    endloop
  endfacet
  facet normal -0.156433 0 -0.987689
    outer loop
      vertex 23.618 -19.8 18.9021
      vertex 23.0695 -18.6 18.989
      vertex 23.618 -18.6 18.9021
    endloop
  endfacet
  facet normal -0.156433 9.30328e-008 -0.987689
    outer loop
      vertex 23.0695 -18.6 18.989
      vertex 23.618 -19.8 18.9021
      vertex 23.0541 -19.8 18.9914
    endloop
  endfacet
  facet normal 0.987692 0 -0.156412
    outer loop
      vertex 21.0979 18.6 17.618
      vertex 21.0893 19.8 17.564
      vertex 21.0979 19.8 17.618
    endloop
  endfacet
  facet normal 0.987691 -1.46809e-007 -0.156415
    outer loop
      vertex 21.0893 19.8 17.564
      vertex 21.0979 18.6 17.618
      vertex 21.0869 18.6 17.5485
    endloop
  endfacet
  facet normal 0.987689 0 -0.15643
    outer loop
      vertex 21.0979 -19.8 17.618
      vertex 21.011 -18.6 17.0695
      vertex 21.0979 -18.6 17.618
    endloop
  endfacet
  facet normal 0.987689 5.00207e-008 -0.15643
    outer loop
      vertex 21.011 -18.6 17.0695
      vertex 21.0979 -19.8 17.618
      vertex 21.0086 -19.8 17.0541
    endloop
  endfacet
  facet normal 0.45399 0 -0.891007
    outer loop
      vertex 21.8244 18.6 18.618
      vertex 22.382 19.8 18.9021
      vertex 22.382 18.6 18.9021
    endloop
  endfacet
  facet normal 0.45399 0 -0.891007
    outer loop
      vertex 22.382 19.8 18.9021
      vertex 21.8244 18.6 18.618
      vertex 21.8244 19.8 18.618
    endloop
  endfacet
  facet normal 0.45399 0 -0.891007
    outer loop
      vertex 21.8244 -19.8 18.618
      vertex 22.382 -18.6 18.9021
      vertex 22.382 -19.8 18.9021
    endloop
  endfacet
  facet normal 0.45399 0 -0.891007
    outer loop
      vertex 22.382 -18.6 18.9021
      vertex 21.8244 -19.8 18.618
      vertex 21.8244 -18.6 18.618
    endloop
  endfacet
  facet normal -0.891007 0 0.45399
    outer loop
      vertex 24.618 18.6 15.8244
      vertex 24.9021 19.8 16.382
      vertex 24.618 19.8 15.8244
    endloop
  endfacet
  facet normal -0.891007 0 0.45399
    outer loop
      vertex 24.9021 19.8 16.382
      vertex 24.618 18.6 15.8244
      vertex 24.9021 18.6 16.382
    endloop
  endfacet
  facet normal -0.891007 0 0.45399
    outer loop
      vertex 24.618 -19.8 15.8244
      vertex 24.9021 -18.6 16.382
      vertex 24.618 -18.6 15.8244
    endloop
  endfacet
  facet normal -0.891007 0 0.45399
    outer loop
      vertex 24.9021 -18.6 16.382
      vertex 24.618 -19.8 15.8244
      vertex 24.9021 -19.8 16.382
    endloop
  endfacet
  facet normal -0.453991 0 0.891006
    outer loop
      vertex 23.618 19.8 15.0979
      vertex 24.1756 18.6 15.382
      vertex 24.1756 19.8 15.382
    endloop
  endfacet
  facet normal -0.453991 0 0.891006
    outer loop
      vertex 24.1756 18.6 15.382
      vertex 23.618 19.8 15.0979
      vertex 23.618 18.6 15.0979
    endloop
  endfacet
  facet normal -0.453991 0 0.891006
    outer loop
      vertex 23.618 -18.6 15.0979
      vertex 24.1756 -19.8 15.382
      vertex 24.1756 -18.6 15.382
    endloop
  endfacet
  facet normal -0.453991 0 0.891006
    outer loop
      vertex 24.1756 -19.8 15.382
      vertex 23.618 -18.6 15.0979
      vertex 23.618 -19.8 15.0979
    endloop
  endfacet
  facet normal 0.156435 -1.14539e-007 0.987688
    outer loop
      vertex 22.382 19.8 15.0979
      vertex 22.9305 18.6 15.011
      vertex 22.9459 19.8 15.0086
    endloop
  endfacet
  facet normal 0.156435 0 0.987688
    outer loop
      vertex 22.9305 18.6 15.011
      vertex 22.382 19.8 15.0979
      vertex 22.382 18.6 15.0979
    endloop
  endfacet
  facet normal 0.156432 -8.28807e-008 0.987689
    outer loop
      vertex 22.382 -18.6 15.0979
      vertex 22.436 -19.8 15.0893
      vertex 22.4515 -18.6 15.0869
    endloop
  endfacet
  facet normal 0.156434 0 0.987688
    outer loop
      vertex 22.436 -19.8 15.0893
      vertex 22.382 -18.6 15.0979
      vertex 22.382 -19.8 15.0979
    endloop
  endfacet
  facet normal 0.891006 -0 0.453992
    outer loop
      vertex 21.0979 18.6 16.382
      vertex 21.382 19.8 15.8244
      vertex 21.0979 19.8 16.382
    endloop
  endfacet
  facet normal 0.891006 0 0.453992
    outer loop
      vertex 21.382 19.8 15.8244
      vertex 21.0979 18.6 16.382
      vertex 21.382 18.6 15.8244
    endloop
  endfacet
  facet normal 0.891006 -0 0.453992
    outer loop
      vertex 21.0979 -19.8 16.382
      vertex 21.382 -18.6 15.8244
      vertex 21.0979 -18.6 16.382
    endloop
  endfacet
  facet normal 0.891006 0 0.453992
    outer loop
      vertex 21.382 -18.6 15.8244
      vertex 21.0979 -19.8 16.382
      vertex 21.382 -19.8 15.8244
    endloop
  endfacet
  facet normal -0.156434 -0 -0.987688
    outer loop
      vertex 23 19.8 19
      vertex 23.5485 18.6 18.9131
      vertex 23 18.6 19
    endloop
  endfacet
  facet normal -0.156433 9.98452e-008 -0.987689
    outer loop
      vertex 23.5485 18.6 18.9131
      vertex 23 19.8 19
      vertex 23.564 19.8 18.9107
    endloop
  endfacet
  facet normal -0.156451 -0 -0.987686
    outer loop
      vertex 23 -18.6 19
      vertex 23.0541 -19.8 18.9914
      vertex 23 -19.8 19
    endloop
  endfacet
  facet normal -0.156445 2.57319e-007 -0.987687
    outer loop
      vertex 23.0541 -19.8 18.9914
      vertex 23 -18.6 19
      vertex 23.0695 -18.6 18.989
    endloop
  endfacet
  facet normal 0.156433 0 -0.987689
    outer loop
      vertex 22.4515 18.6 18.9131
      vertex 23 19.8 19
      vertex 23 18.6 19
    endloop
  endfacet
  facet normal 0.156433 9.30328e-008 -0.987689
    outer loop
      vertex 23 19.8 19
      vertex 22.4515 18.6 18.9131
      vertex 22.436 19.8 18.9107
    endloop
  endfacet
  facet normal 0.156451 0 -0.987686
    outer loop
      vertex 22.9459 -19.8 18.9914
      vertex 23 -18.6 19
      vertex 23 -19.8 19
    endloop
  endfacet
  facet normal 0.156445 2.57319e-007 -0.987687
    outer loop
      vertex 23 -18.6 19
      vertex 22.9459 -19.8 18.9914
      vertex 22.9305 -18.6 18.989
    endloop
  endfacet
  facet normal 0.987689 9.98452e-008 -0.156433
    outer loop
      vertex 21.0869 18.6 17.5485
      vertex 21 19.8 17
      vertex 21.0893 19.8 17.564
    endloop
  endfacet
  facet normal 0.987688 0 -0.156434
    outer loop
      vertex 21 19.8 17
      vertex 21.0869 18.6 17.5485
      vertex 21 18.6 17
    endloop
  endfacet
  facet normal 0.987687 2.57319e-007 -0.156445
    outer loop
      vertex 21.0086 -19.8 17.0541
      vertex 21 -18.6 17
      vertex 21.011 -18.6 17.0695
    endloop
  endfacet
  facet normal 0.987686 0 -0.156451
    outer loop
      vertex 21 -18.6 17
      vertex 21.0086 -19.8 17.0541
      vertex 21 -19.8 17
    endloop
  endfacet
  facet normal 0.987687 -0 0.156446
    outer loop
      vertex 21 18.6 17
      vertex 21.0086 19.8 16.9459
      vertex 21 19.8 17
    endloop
  endfacet
  facet normal 0.987687 -2.0206e-007 0.156441
    outer loop
      vertex 21.0086 19.8 16.9459
      vertex 21 18.6 17
      vertex 21.011 18.6 16.9305
    endloop
  endfacet
  facet normal 0.987689 -0 0.156433
    outer loop
      vertex 21 -19.8 17
      vertex 21.0869 -18.6 16.4515
      vertex 21 -18.6 17
    endloop
  endfacet
  facet normal 0.987689 -9.30328e-008 0.156433
    outer loop
      vertex 21.0869 -18.6 16.4515
      vertex 21 -19.8 17
      vertex 21.0893 -19.8 16.436
    endloop
  endfacet
  facet normal 0.156434 0 0.987688
    outer loop
      vertex 22.9459 19.8 15.0086
      vertex 23 18.6 15
      vertex 23 19.8 15
    endloop
  endfacet
  facet normal 0.156432 -8.28807e-008 0.987689
    outer loop
      vertex 23 18.6 15
      vertex 22.9459 19.8 15.0086
      vertex 22.9305 18.6 15.011
    endloop
  endfacet
  facet normal 0.156433 0 0.987689
    outer loop
      vertex 22.4515 -18.6 15.0869
      vertex 23 -19.8 15
      vertex 23 -18.6 15
    endloop
  endfacet
  facet normal 0.156433 -9.30328e-008 0.987689
    outer loop
      vertex 23 -19.8 15
      vertex 22.4515 -18.6 15.0869
      vertex 22.436 -19.8 15.0893
    endloop
  endfacet
  facet normal -0.156434 0 0.987688
    outer loop
      vertex 23 18.6 15
      vertex 23.0541 19.8 15.0086
      vertex 23 19.8 15
    endloop
  endfacet
  facet normal -0.156432 -8.28807e-008 0.987689
    outer loop
      vertex 23.0541 19.8 15.0086
      vertex 23 18.6 15
      vertex 23.0695 18.6 15.011
    endloop
  endfacet
  facet normal -0.156434 0 0.987688
    outer loop
      vertex 23 -19.8 15
      vertex 23.5485 -18.6 15.0869
      vertex 23 -18.6 15
    endloop
  endfacet
  facet normal -0.156433 -9.98452e-008 0.987689
    outer loop
      vertex 23.5485 -18.6 15.0869
      vertex 23 -19.8 15
      vertex 23.564 -19.8 15.0893
    endloop
  endfacet
  facet normal -0.707107 0 -0.707107
    outer loop
      vertex 24.618 18.6 18.1756
      vertex 24.1756 19.8 18.618
      vertex 24.618 19.8 18.1756
    endloop
  endfacet
  facet normal -0.707107 -0 -0.707107
    outer loop
      vertex 24.1756 19.8 18.618
      vertex 24.618 18.6 18.1756
      vertex 24.1756 18.6 18.618
    endloop
  endfacet
  facet normal -0.707107 0 -0.707107
    outer loop
      vertex 24.618 -19.8 18.1756
      vertex 24.1756 -18.6 18.618
      vertex 24.618 -18.6 18.1756
    endloop
  endfacet
  facet normal -0.707107 -0 -0.707107
    outer loop
      vertex 24.1756 -18.6 18.618
      vertex 24.618 -19.8 18.1756
      vertex 24.1756 -19.8 18.618
    endloop
  endfacet
  facet normal 0.707107 0 -0.707107
    outer loop
      vertex 21.8244 18.6 18.618
      vertex 21.382 19.8 18.1756
      vertex 21.8244 19.8 18.618
    endloop
  endfacet
  facet normal 0.707107 0 -0.707107
    outer loop
      vertex 21.382 19.8 18.1756
      vertex 21.8244 18.6 18.618
      vertex 21.382 18.6 18.1756
    endloop
  endfacet
  facet normal 0.707107 0 -0.707107
    outer loop
      vertex 21.8244 -19.8 18.618
      vertex 21.382 -18.6 18.1756
      vertex 21.8244 -18.6 18.618
    endloop
  endfacet
  facet normal 0.707107 0 -0.707107
    outer loop
      vertex 21.382 -18.6 18.1756
      vertex 21.8244 -19.8 18.618
      vertex 21.382 -19.8 18.1756
    endloop
  endfacet
  facet normal 0.891006 0 -0.453992
    outer loop
      vertex 21.382 18.6 18.1756
      vertex 21.0979 19.8 17.618
      vertex 21.382 19.8 18.1756
    endloop
  endfacet
  facet normal 0.891006 0 -0.453992
    outer loop
      vertex 21.0979 19.8 17.618
      vertex 21.382 18.6 18.1756
      vertex 21.0979 18.6 17.618
    endloop
  endfacet
  facet normal 0.891006 0 -0.453992
    outer loop
      vertex 21.382 -19.8 18.1756
      vertex 21.0979 -18.6 17.618
      vertex 21.382 -18.6 18.1756
    endloop
  endfacet
  facet normal 0.891006 0 -0.453992
    outer loop
      vertex 21.0979 -18.6 17.618
      vertex 21.382 -19.8 18.1756
      vertex 21.0979 -19.8 17.618
    endloop
  endfacet
  facet normal -0.707107 0 0.707107
    outer loop
      vertex 24.1756 18.6 15.382
      vertex 24.618 19.8 15.8244
      vertex 24.1756 19.8 15.382
    endloop
  endfacet
  facet normal -0.707107 0 0.707107
    outer loop
      vertex 24.618 19.8 15.8244
      vertex 24.1756 18.6 15.382
      vertex 24.618 18.6 15.8244
    endloop
  endfacet
  facet normal -0.707107 0 0.707107
    outer loop
      vertex 24.1756 -19.8 15.382
      vertex 24.618 -18.6 15.8244
      vertex 24.1756 -18.6 15.382
    endloop
  endfacet
  facet normal -0.707107 0 0.707107
    outer loop
      vertex 24.618 -18.6 15.8244
      vertex 24.1756 -19.8 15.382
      vertex 24.618 -19.8 15.8244
    endloop
  endfacet
  facet normal -0.987688 0 0.156434
    outer loop
      vertex 24.989 18.6 16.9305
      vertex 24.9021 19.8 16.382
      vertex 24.9021 18.6 16.382
    endloop
  endfacet
  facet normal -0.987689 -9.98452e-008 0.156433
    outer loop
      vertex 24.9021 19.8 16.382
      vertex 24.989 18.6 16.9305
      vertex 24.9914 19.8 16.9459
    endloop
  endfacet
  facet normal -0.987686 0 0.156451
    outer loop
      vertex 24.9107 -19.8 16.436
      vertex 24.9021 -18.6 16.382
      vertex 24.9021 -19.8 16.382
    endloop
  endfacet
  facet normal -0.987687 -2.57319e-007 0.156445
    outer loop
      vertex 24.9021 -18.6 16.382
      vertex 24.9107 -19.8 16.436
      vertex 24.9131 -18.6 16.4515
    endloop
  endfacet
  facet normal -0.987687 -2.0206e-007 0.156441
    outer loop
      vertex 25 18.6 17
      vertex 24.9914 19.8 16.9459
      vertex 24.989 18.6 16.9305
    endloop
  endfacet
  facet normal -0.987687 0 0.156446
    outer loop
      vertex 24.9914 19.8 16.9459
      vertex 25 18.6 17
      vertex 25 19.8 17
    endloop
  endfacet
  facet normal -0.987689 -9.30328e-008 0.156433
    outer loop
      vertex 25 -19.8 17
      vertex 24.9131 -18.6 16.4515
      vertex 24.9107 -19.8 16.436
    endloop
  endfacet
  facet normal -0.987689 0 0.156433
    outer loop
      vertex 24.9131 -18.6 16.4515
      vertex 25 -19.8 17
      vertex 25 -18.6 17
    endloop
  endfacet
  facet normal 0.707107 -0 0.707107
    outer loop
      vertex 21.382 18.6 15.8244
      vertex 21.8244 19.8 15.382
      vertex 21.382 19.8 15.8244
    endloop
  endfacet
  facet normal 0.707107 0 0.707107
    outer loop
      vertex 21.8244 19.8 15.382
      vertex 21.382 18.6 15.8244
      vertex 21.8244 18.6 15.382
    endloop
  endfacet
  facet normal 0.707107 -0 0.707107
    outer loop
      vertex 21.382 -19.8 15.8244
      vertex 21.8244 -18.6 15.382
      vertex 21.382 -18.6 15.8244
    endloop
  endfacet
  facet normal 0.707107 0 0.707107
    outer loop
      vertex 21.8244 -18.6 15.382
      vertex 21.382 -19.8 15.8244
      vertex 21.8244 -19.8 15.382
    endloop
  endfacet
  facet normal 0.453991 0 0.891006
    outer loop
      vertex 21.8244 19.8 15.382
      vertex 22.382 18.6 15.0979
      vertex 22.382 19.8 15.0979
    endloop
  endfacet
  facet normal 0.453991 0 0.891006
    outer loop
      vertex 22.382 18.6 15.0979
      vertex 21.8244 19.8 15.382
      vertex 21.8244 18.6 15.382
    endloop
  endfacet
  facet normal 0.453991 0 0.891006
    outer loop
      vertex 21.8244 -18.6 15.382
      vertex 22.382 -19.8 15.0979
      vertex 22.382 -18.6 15.0979
    endloop
  endfacet
  facet normal 0.453991 0 0.891006
    outer loop
      vertex 22.382 -19.8 15.0979
      vertex 21.8244 -18.6 15.382
      vertex 21.8244 -19.8 15.382
    endloop
  endfacet
endsolid OpenSCAD_Model
