solid OpenSCAD_Model
  facet normal -0.987689 -0.156432 0
    outer loop
      vertex -24.5 16 20.6
      vertex -24.5734 16.4635 21.8
      vertex -24.5734 16.4635 20.6
    endloop
  endfacet
  facet normal -0.987689 -0.156432 0
    outer loop
      vertex -24.5734 16.4635 21.8
      vertex -24.5 16 20.6
      vertex -24.5 16 21.8
    endloop
  endfacet
  facet normal 0.987688 -0.156436 0
    outer loop
      vertex -27.5 16 21.8
      vertex -27.4266 16.4635 20.6
      vertex -27.4266 16.4635 21.8
    endloop
  endfacet
  facet normal 0.987688 -0.156436 0
    outer loop
      vertex -27.4266 16.4635 20.6
      vertex -27.5 16 21.8
      vertex -27.5 16 20.6
    endloop
  endfacet
  facet normal -0.156435 -0.987688 0
    outer loop
      vertex -26 17.5 20.6
      vertex -25.5365 17.4266 21.8
      vertex -26 17.5 21.8
    endloop
  endfacet
  facet normal -0.156435 -0.987688 -0
    outer loop
      vertex -25.5365 17.4266 21.8
      vertex -26 17.5 20.6
      vertex -25.5365 17.4266 20.6
    endloop
  endfacet
  facet normal -0.156433 0.987688 0
    outer loop
      vertex -25.5365 14.5734 20.6
      vertex -26 14.5 21.8
      vertex -25.5365 14.5734 21.8
    endloop
  endfacet
  facet normal -0.156433 0.987688 0
    outer loop
      vertex -26 14.5 21.8
      vertex -25.5365 14.5734 20.6
      vertex -26 14.5 20.6
    endloop
  endfacet
  facet normal -0.45399 0.891007 0
    outer loop
      vertex -25.1183 14.7865 20.6
      vertex -25.5365 14.5734 21.8
      vertex -25.1183 14.7865 21.8
    endloop
  endfacet
  facet normal -0.45399 0.891007 0
    outer loop
      vertex -25.5365 14.5734 21.8
      vertex -25.1183 14.7865 20.6
      vertex -25.5365 14.5734 20.6
    endloop
  endfacet
  facet normal -0.707107 -0.707107 0
    outer loop
      vertex -24.7865 16.8817 20.6
      vertex -25.1183 17.2135 21.8
      vertex -25.1183 17.2135 20.6
    endloop
  endfacet
  facet normal -0.707107 -0.707107 0
    outer loop
      vertex -25.1183 17.2135 21.8
      vertex -24.7865 16.8817 20.6
      vertex -24.7865 16.8817 21.8
    endloop
  endfacet
  facet normal -0.891006 -0.453991 0
    outer loop
      vertex -24.5734 16.4635 20.6
      vertex -24.7865 16.8817 21.8
      vertex -24.7865 16.8817 20.6
    endloop
  endfacet
  facet normal -0.891006 -0.453991 0
    outer loop
      vertex -24.7865 16.8817 21.8
      vertex -24.5734 16.4635 20.6
      vertex -24.5734 16.4635 21.8
    endloop
  endfacet
  facet normal -0.453991 -0.891006 0
    outer loop
      vertex -25.5365 17.4266 20.6
      vertex -25.1183 17.2135 21.8
      vertex -25.5365 17.4266 21.8
    endloop
  endfacet
  facet normal -0.453991 -0.891006 -0
    outer loop
      vertex -25.1183 17.2135 21.8
      vertex -25.5365 17.4266 20.6
      vertex -25.1183 17.2135 20.6
    endloop
  endfacet
  facet normal 0.453991 -0.891006 0
    outer loop
      vertex -26.8817 17.2135 20.6
      vertex -26.4635 17.4266 21.8
      vertex -26.8817 17.2135 21.8
    endloop
  endfacet
  facet normal 0.453991 -0.891006 0
    outer loop
      vertex -26.4635 17.4266 21.8
      vertex -26.8817 17.2135 20.6
      vertex -26.4635 17.4266 20.6
    endloop
  endfacet
  facet normal 0.707107 -0.707107 0
    outer loop
      vertex -27.2135 16.8817 21.8
      vertex -26.8817 17.2135 20.6
      vertex -26.8817 17.2135 21.8
    endloop
  endfacet
  facet normal 0.707107 -0.707107 0
    outer loop
      vertex -26.8817 17.2135 20.6
      vertex -27.2135 16.8817 21.8
      vertex -27.2135 16.8817 20.6
    endloop
  endfacet
  facet normal 0.156436 -0.987688 0
    outer loop
      vertex -26.4635 17.4266 20.6
      vertex -26 17.5 21.8
      vertex -26.4635 17.4266 21.8
    endloop
  endfacet
  facet normal 0.156436 -0.987688 0
    outer loop
      vertex -26 17.5 21.8
      vertex -26.4635 17.4266 20.6
      vertex -26 17.5 20.6
    endloop
  endfacet
  facet normal 0.707108 0.707106 0
    outer loop
      vertex -26.8817 14.7865 21.8
      vertex -27.2135 15.1183 20.6
      vertex -27.2135 15.1183 21.8
    endloop
  endfacet
  facet normal 0.707108 0.707106 0
    outer loop
      vertex -27.2135 15.1183 20.6
      vertex -26.8817 14.7865 21.8
      vertex -26.8817 14.7865 20.6
    endloop
  endfacet
  facet normal 0.891006 -0.453991 0
    outer loop
      vertex -27.4266 16.4635 21.8
      vertex -27.2135 16.8817 20.6
      vertex -27.2135 16.8817 21.8
    endloop
  endfacet
  facet normal 0.891006 -0.453991 0
    outer loop
      vertex -27.2135 16.8817 20.6
      vertex -27.4266 16.4635 21.8
      vertex -27.4266 16.4635 20.6
    endloop
  endfacet
  facet normal -0.987689 0.156432 0
    outer loop
      vertex -24.5734 15.5365 20.6
      vertex -24.5 16 21.8
      vertex -24.5 16 20.6
    endloop
  endfacet
  facet normal -0.987689 0.156432 0
    outer loop
      vertex -24.5 16 21.8
      vertex -24.5734 15.5365 20.6
      vertex -24.5734 15.5365 21.8
    endloop
  endfacet
  facet normal -0.707108 0.707106 0
    outer loop
      vertex -25.1183 14.7865 20.6
      vertex -24.7865 15.1183 21.8
      vertex -24.7865 15.1183 20.6
    endloop
  endfacet
  facet normal -0.707108 0.707106 0
    outer loop
      vertex -24.7865 15.1183 21.8
      vertex -25.1183 14.7865 20.6
      vertex -25.1183 14.7865 21.8
    endloop
  endfacet
  facet normal -0.891006 0.453992 0
    outer loop
      vertex -24.7865 15.1183 20.6
      vertex -24.5734 15.5365 21.8
      vertex -24.5734 15.5365 20.6
    endloop
  endfacet
  facet normal -0.891006 0.453992 0
    outer loop
      vertex -24.5734 15.5365 21.8
      vertex -24.7865 15.1183 20.6
      vertex -24.7865 15.1183 21.8
    endloop
  endfacet
  facet normal 0.156434 0.987688 -0
    outer loop
      vertex -26 14.5 20.6
      vertex -26.4635 14.5734 21.8
      vertex -26 14.5 21.8
    endloop
  endfacet
  facet normal 0.156434 0.987688 0
    outer loop
      vertex -26.4635 14.5734 21.8
      vertex -26 14.5 20.6
      vertex -26.4635 14.5734 20.6
    endloop
  endfacet
  facet normal 0.891006 0.453992 0
    outer loop
      vertex -27.2135 15.1183 21.8
      vertex -27.4266 15.5365 20.6
      vertex -27.4266 15.5365 21.8
    endloop
  endfacet
  facet normal 0.891006 0.453992 0
    outer loop
      vertex -27.4266 15.5365 20.6
      vertex -27.2135 15.1183 21.8
      vertex -27.2135 15.1183 20.6
    endloop
  endfacet
  facet normal 0.987688 0.156435 0
    outer loop
      vertex -27.4266 15.5365 21.8
      vertex -27.5 16 20.6
      vertex -27.5 16 21.8
    endloop
  endfacet
  facet normal 0.987688 0.156435 0
    outer loop
      vertex -27.5 16 20.6
      vertex -27.4266 15.5365 21.8
      vertex -27.4266 15.5365 20.6
    endloop
  endfacet
  facet normal 0.45399 0.891007 -0
    outer loop
      vertex -26.4635 14.5734 20.6
      vertex -26.8817 14.7865 21.8
      vertex -26.4635 14.5734 21.8
    endloop
  endfacet
  facet normal 0.45399 0.891007 0
    outer loop
      vertex -26.8817 14.7865 21.8
      vertex -26.4635 14.5734 20.6
      vertex -26.8817 14.7865 20.6
    endloop
  endfacet
  facet normal -0.987689 -0.156432 0
    outer loop
      vertex -24.5 -16 20.6
      vertex -24.5734 -15.5365 21.8
      vertex -24.5734 -15.5365 20.6
    endloop
  endfacet
  facet normal -0.987689 -0.156432 0
    outer loop
      vertex -24.5734 -15.5365 21.8
      vertex -24.5 -16 20.6
      vertex -24.5 -16 21.8
    endloop
  endfacet
  facet normal 0.987688 -0.156435 0
    outer loop
      vertex -27.5 -16 21.8
      vertex -27.4266 -15.5365 20.6
      vertex -27.4266 -15.5365 21.8
    endloop
  endfacet
  facet normal 0.987688 -0.156435 0
    outer loop
      vertex -27.4266 -15.5365 20.6
      vertex -27.5 -16 21.8
      vertex -27.5 -16 20.6
    endloop
  endfacet
  facet normal 0.156434 -0.987688 0
    outer loop
      vertex -26.4635 -14.5734 20.6
      vertex -26 -14.5 21.8
      vertex -26.4635 -14.5734 21.8
    endloop
  endfacet
  facet normal 0.156434 -0.987688 0
    outer loop
      vertex -26 -14.5 21.8
      vertex -26.4635 -14.5734 20.6
      vertex -26 -14.5 20.6
    endloop
  endfacet
  facet normal 0.156436 0.987688 -0
    outer loop
      vertex -26 -17.5 20.6
      vertex -26.4635 -17.4266 21.8
      vertex -26 -17.5 21.8
    endloop
  endfacet
  facet normal 0.156436 0.987688 0
    outer loop
      vertex -26.4635 -17.4266 21.8
      vertex -26 -17.5 20.6
      vertex -26.4635 -17.4266 20.6
    endloop
  endfacet
  facet normal -0.707108 -0.707106 0
    outer loop
      vertex -24.7865 -15.1183 20.6
      vertex -25.1183 -14.7865 21.8
      vertex -25.1183 -14.7865 20.6
    endloop
  endfacet
  facet normal -0.707108 -0.707106 0
    outer loop
      vertex -25.1183 -14.7865 21.8
      vertex -24.7865 -15.1183 20.6
      vertex -24.7865 -15.1183 21.8
    endloop
  endfacet
  facet normal -0.891006 -0.453992 0
    outer loop
      vertex -24.5734 -15.5365 20.6
      vertex -24.7865 -15.1183 21.8
      vertex -24.7865 -15.1183 20.6
    endloop
  endfacet
  facet normal -0.891006 -0.453992 0
    outer loop
      vertex -24.7865 -15.1183 21.8
      vertex -24.5734 -15.5365 20.6
      vertex -24.5734 -15.5365 21.8
    endloop
  endfacet
  facet normal -0.45399 -0.891007 0
    outer loop
      vertex -25.5365 -14.5734 20.6
      vertex -25.1183 -14.7865 21.8
      vertex -25.5365 -14.5734 21.8
    endloop
  endfacet
  facet normal -0.45399 -0.891007 -0
    outer loop
      vertex -25.1183 -14.7865 21.8
      vertex -25.5365 -14.5734 20.6
      vertex -25.1183 -14.7865 20.6
    endloop
  endfacet
  facet normal 0.707108 -0.707106 0
    outer loop
      vertex -27.2135 -15.1183 21.8
      vertex -26.8817 -14.7865 20.6
      vertex -26.8817 -14.7865 21.8
    endloop
  endfacet
  facet normal 0.707108 -0.707106 0
    outer loop
      vertex -26.8817 -14.7865 20.6
      vertex -27.2135 -15.1183 21.8
      vertex -27.2135 -15.1183 20.6
    endloop
  endfacet
  facet normal 0.891006 -0.453992 0
    outer loop
      vertex -27.4266 -15.5365 21.8
      vertex -27.2135 -15.1183 20.6
      vertex -27.2135 -15.1183 21.8
    endloop
  endfacet
  facet normal 0.891006 -0.453992 0
    outer loop
      vertex -27.2135 -15.1183 20.6
      vertex -27.4266 -15.5365 21.8
      vertex -27.4266 -15.5365 20.6
    endloop
  endfacet
  facet normal 0.45399 -0.891007 0
    outer loop
      vertex -26.8817 -14.7865 20.6
      vertex -26.4635 -14.5734 21.8
      vertex -26.8817 -14.7865 21.8
    endloop
  endfacet
  facet normal 0.45399 -0.891007 0
    outer loop
      vertex -26.4635 -14.5734 21.8
      vertex -26.8817 -14.7865 20.6
      vertex -26.4635 -14.5734 20.6
    endloop
  endfacet
  facet normal -0.891006 0.453991 0
    outer loop
      vertex -24.7865 -16.8817 20.6
      vertex -24.5734 -16.4635 21.8
      vertex -24.5734 -16.4635 20.6
    endloop
  endfacet
  facet normal -0.891006 0.453991 0
    outer loop
      vertex -24.5734 -16.4635 21.8
      vertex -24.7865 -16.8817 20.6
      vertex -24.7865 -16.8817 21.8
    endloop
  endfacet
  facet normal 0.707107 0.707107 0
    outer loop
      vertex -26.8817 -17.2135 21.8
      vertex -27.2135 -16.8817 20.6
      vertex -27.2135 -16.8817 21.8
    endloop
  endfacet
  facet normal 0.707107 0.707107 0
    outer loop
      vertex -27.2135 -16.8817 20.6
      vertex -26.8817 -17.2135 21.8
      vertex -26.8817 -17.2135 20.6
    endloop
  endfacet
  facet normal 0.987688 0.156436 0
    outer loop
      vertex -27.4266 -16.4635 21.8
      vertex -27.5 -16 20.6
      vertex -27.5 -16 21.8
    endloop
  endfacet
  facet normal 0.987688 0.156436 0
    outer loop
      vertex -27.5 -16 20.6
      vertex -27.4266 -16.4635 21.8
      vertex -27.4266 -16.4635 20.6
    endloop
  endfacet
  facet normal -0.156433 -0.987688 0
    outer loop
      vertex -26 -14.5 20.6
      vertex -25.5365 -14.5734 21.8
      vertex -26 -14.5 21.8
    endloop
  endfacet
  facet normal -0.156433 -0.987688 -0
    outer loop
      vertex -25.5365 -14.5734 21.8
      vertex -26 -14.5 20.6
      vertex -25.5365 -14.5734 20.6
    endloop
  endfacet
  facet normal -0.987689 0.156432 0
    outer loop
      vertex -24.5734 -16.4635 20.6
      vertex -24.5 -16 21.8
      vertex -24.5 -16 20.6
    endloop
  endfacet
  facet normal -0.987689 0.156432 0
    outer loop
      vertex -24.5 -16 21.8
      vertex -24.5734 -16.4635 20.6
      vertex -24.5734 -16.4635 21.8
    endloop
  endfacet
  facet normal -0.156435 0.987688 0
    outer loop
      vertex -25.5365 -17.4266 20.6
      vertex -26 -17.5 21.8
      vertex -25.5365 -17.4266 21.8
    endloop
  endfacet
  facet normal -0.156435 0.987688 0
    outer loop
      vertex -26 -17.5 21.8
      vertex -25.5365 -17.4266 20.6
      vertex -26 -17.5 20.6
    endloop
  endfacet
  facet normal -0.707107 0.707107 0
    outer loop
      vertex -25.1183 -17.2135 20.6
      vertex -24.7865 -16.8817 21.8
      vertex -24.7865 -16.8817 20.6
    endloop
  endfacet
  facet normal -0.707107 0.707107 0
    outer loop
      vertex -24.7865 -16.8817 21.8
      vertex -25.1183 -17.2135 20.6
      vertex -25.1183 -17.2135 21.8
    endloop
  endfacet
  facet normal 0.453991 0.891006 -0
    outer loop
      vertex -26.4635 -17.4266 20.6
      vertex -26.8817 -17.2135 21.8
      vertex -26.4635 -17.4266 21.8
    endloop
  endfacet
  facet normal 0.453991 0.891006 0
    outer loop
      vertex -26.8817 -17.2135 21.8
      vertex -26.4635 -17.4266 20.6
      vertex -26.8817 -17.2135 20.6
    endloop
  endfacet
  facet normal 0.891006 0.453991 0
    outer loop
      vertex -27.2135 -16.8817 21.8
      vertex -27.4266 -16.4635 20.6
      vertex -27.4266 -16.4635 21.8
    endloop
  endfacet
  facet normal 0.891006 0.453991 0
    outer loop
      vertex -27.4266 -16.4635 20.6
      vertex -27.2135 -16.8817 21.8
      vertex -27.2135 -16.8817 20.6
    endloop
  endfacet
  facet normal -0.453991 0.891006 0
    outer loop
      vertex -25.1183 -17.2135 20.6
      vertex -25.5365 -17.4266 21.8
      vertex -25.1183 -17.2135 21.8
    endloop
  endfacet
  facet normal -0.453991 0.891006 0
    outer loop
      vertex -25.5365 -17.4266 21.8
      vertex -25.1183 -17.2135 20.6
      vertex -25.5365 -17.4266 20.6
    endloop
  endfacet
  facet normal -1 0 0
    outer loop
      vertex -31.2 -21.2 20.6
      vertex -31.2 21.2 21.8
      vertex -31.2 21.2 20.6
    endloop
  endfacet
  facet normal -1 -0 0
    outer loop
      vertex -31.2 21.2 21.8
      vertex -31.2 -21.2 20.6
      vertex -31.2 -21.2 21.8
    endloop
  endfacet
  facet normal 0 0 1
    outer loop
      vertex -9.80344 -8.02725 21.8
      vertex -25.1183 14.7865 21.8
      vertex -10.5282 -8.39655 21.8
    endloop
  endfacet
  facet normal 0 0 1
    outer loop
      vertex -11.1034 -8.97176 21.8
      vertex -24.5734 -15.5365 21.8
      vertex -24.5 -16 21.8
    endloop
  endfacet
  facet normal -0 0 1
    outer loop
      vertex -25.5365 14.5734 21.8
      vertex -10.5282 -8.39655 21.8
      vertex -25.1183 14.7865 21.8
    endloop
  endfacet
  facet normal 0 0 1
    outer loop
      vertex -11.1034 -8.97176 21.8
      vertex -24.7865 -15.1183 21.8
      vertex -24.5734 -15.5365 21.8
    endloop
  endfacet
  facet normal 0 0 1
    outer loop
      vertex -10.5282 -8.39655 21.8
      vertex -25.5365 14.5734 21.8
      vertex -11.1034 -8.97176 21.8
    endloop
  endfacet
  facet normal 0 0 1
    outer loop
      vertex -11.1034 -8.97176 21.8
      vertex -25.1183 -14.7865 21.8
      vertex -24.7865 -15.1183 21.8
    endloop
  endfacet
  facet normal 0 0 1
    outer loop
      vertex -25.5365 -14.5734 21.8
      vertex -11.1034 -8.97176 21.8
      vertex -25.5365 14.5734 21.8
    endloop
  endfacet
  facet normal 0 0 1
    outer loop
      vertex -11.1034 -8.97176 21.8
      vertex -25.5365 -14.5734 21.8
      vertex -25.1183 -14.7865 21.8
    endloop
  endfacet
  facet normal -0 0 1
    outer loop
      vertex -26 14.5 21.8
      vertex -25.5365 -14.5734 21.8
      vertex -25.5365 14.5734 21.8
    endloop
  endfacet
  facet normal 0 0 1
    outer loop
      vertex -26 14.5 21.8
      vertex -26 -14.5 21.8
      vertex -25.5365 -14.5734 21.8
    endloop
  endfacet
  facet normal 0 0 1
    outer loop
      vertex -26.4635 14.5734 21.8
      vertex -26 -14.5 21.8
      vertex -26 14.5 21.8
    endloop
  endfacet
  facet normal 0 0 1
    outer loop
      vertex -26.4635 14.5734 21.8
      vertex -26.4635 -14.5734 21.8
      vertex -26 -14.5 21.8
    endloop
  endfacet
  facet normal 0 0 1
    outer loop
      vertex -26.8817 14.7865 21.8
      vertex -26.4635 -14.5734 21.8
      vertex -26.4635 14.5734 21.8
    endloop
  endfacet
  facet normal 0 0 1
    outer loop
      vertex -26.8817 14.7865 21.8
      vertex -26.8817 -14.7865 21.8
      vertex -26.4635 -14.5734 21.8
    endloop
  endfacet
  facet normal 0 0 1
    outer loop
      vertex -27.2135 15.1183 21.8
      vertex -26.8817 -14.7865 21.8
      vertex -26.8817 14.7865 21.8
    endloop
  endfacet
  facet normal 0 0 1
    outer loop
      vertex -27.2135 15.1183 21.8
      vertex -27.2135 -15.1183 21.8
      vertex -26.8817 -14.7865 21.8
    endloop
  endfacet
  facet normal 0 0 1
    outer loop
      vertex -27.4266 15.5365 21.8
      vertex -27.2135 -15.1183 21.8
      vertex -27.2135 15.1183 21.8
    endloop
  endfacet
  facet normal 0 0 1
    outer loop
      vertex -27.4266 15.5365 21.8
      vertex -27.4266 -15.5365 21.8
      vertex -27.2135 -15.1183 21.8
    endloop
  endfacet
  facet normal 0 0 1
    outer loop
      vertex -31.2 21.2 21.8
      vertex -27.4266 15.5365 21.8
      vertex -27.5 16 21.8
    endloop
  endfacet
  facet normal 0 0 1
    outer loop
      vertex -27.4266 15.5365 21.8
      vertex -31.2 21.2 21.8
      vertex -27.4266 -15.5365 21.8
    endloop
  endfacet
  facet normal -0 0 1
    outer loop
      vertex -6.52725 -9.69656 21.8
      vertex 1.2 -21.2 21.8
      vertex 1.2 21.2 21.8
    endloop
  endfacet
  facet normal 0 0 1
    outer loop
      vertex 1.2 -21.2 21.8
      vertex -6.52725 -9.69656 21.8
      vertex -6.4 -10.5 21.8
    endloop
  endfacet
  facet normal 0 0 1
    outer loop
      vertex 1.2 21.2 21.8
      vertex -6.89655 -8.97176 21.8
      vertex -6.52725 -9.69656 21.8
    endloop
  endfacet
  facet normal 0 0 1
    outer loop
      vertex 1.2 21.2 21.8
      vertex -7.47176 -8.39655 21.8
      vertex -6.89655 -8.97176 21.8
    endloop
  endfacet
  facet normal 0 0 1
    outer loop
      vertex 1.2 21.2 21.8
      vertex -8.19656 -8.02725 21.8
      vertex -7.47176 -8.39655 21.8
    endloop
  endfacet
  facet normal 0 0 1
    outer loop
      vertex 1.2 21.2 21.8
      vertex -9 -7.9 21.8
      vertex -8.19656 -8.02725 21.8
    endloop
  endfacet
  facet normal 0 0 1
    outer loop
      vertex -24.5734 15.5365 21.8
      vertex 1.2 21.2 21.8
      vertex -24.5 16 21.8
    endloop
  endfacet
  facet normal 0 0 1
    outer loop
      vertex 1.2 21.2 21.8
      vertex -24.5734 15.5365 21.8
      vertex -9 -7.9 21.8
    endloop
  endfacet
  facet normal -0 0 1
    outer loop
      vertex -24.7865 15.1183 21.8
      vertex -9 -7.9 21.8
      vertex -24.5734 15.5365 21.8
    endloop
  endfacet
  facet normal 0 0 1
    outer loop
      vertex -9 -7.9 21.8
      vertex -24.7865 15.1183 21.8
      vertex -9.80344 -8.02725 21.8
    endloop
  endfacet
  facet normal 0 0 1
    outer loop
      vertex -11.1034 -8.97176 21.8
      vertex -24.5 -16 21.8
      vertex -11.4727 -9.69656 21.8
    endloop
  endfacet
  facet normal -0 0 1
    outer loop
      vertex -25.1183 14.7865 21.8
      vertex -9.80344 -8.02725 21.8
      vertex -24.7865 15.1183 21.8
    endloop
  endfacet
  facet normal 0 0 1
    outer loop
      vertex 1.2 21.2 21.8
      vertex -24.5734 16.4635 21.8
      vertex -24.5 16 21.8
    endloop
  endfacet
  facet normal 0 0 1
    outer loop
      vertex 1.2 21.2 21.8
      vertex -24.7865 16.8817 21.8
      vertex -24.5734 16.4635 21.8
    endloop
  endfacet
  facet normal 0 0 1
    outer loop
      vertex 1.2 21.2 21.8
      vertex -25.1183 17.2135 21.8
      vertex -24.7865 16.8817 21.8
    endloop
  endfacet
  facet normal 0 0 1
    outer loop
      vertex 1.2 21.2 21.8
      vertex -25.5365 17.4266 21.8
      vertex -25.1183 17.2135 21.8
    endloop
  endfacet
  facet normal -0 0 1
    outer loop
      vertex -31.2 21.2 21.8
      vertex -25.5365 17.4266 21.8
      vertex 1.2 21.2 21.8
    endloop
  endfacet
  facet normal 0 0 1
    outer loop
      vertex -31.2 -21.2 21.8
      vertex -27.4266 -15.5365 21.8
      vertex -31.2 21.2 21.8
    endloop
  endfacet
  facet normal 0 0 1
    outer loop
      vertex -27.4266 16.4635 21.8
      vertex -31.2 21.2 21.8
      vertex -27.5 16 21.8
    endloop
  endfacet
  facet normal 0 0 1
    outer loop
      vertex -27.2135 16.8817 21.8
      vertex -31.2 21.2 21.8
      vertex -27.4266 16.4635 21.8
    endloop
  endfacet
  facet normal 0 0 1
    outer loop
      vertex -26.8817 17.2135 21.8
      vertex -31.2 21.2 21.8
      vertex -27.2135 16.8817 21.8
    endloop
  endfacet
  facet normal 0 0 1
    outer loop
      vertex -26.4635 17.4266 21.8
      vertex -31.2 21.2 21.8
      vertex -26.8817 17.2135 21.8
    endloop
  endfacet
  facet normal 0 0 1
    outer loop
      vertex -26 17.5 21.8
      vertex -31.2 21.2 21.8
      vertex -26.4635 17.4266 21.8
    endloop
  endfacet
  facet normal 0 0 1
    outer loop
      vertex -25.5365 17.4266 21.8
      vertex -31.2 21.2 21.8
      vertex -26 17.5 21.8
    endloop
  endfacet
  facet normal -0 0 1
    outer loop
      vertex -6.52725 -11.3034 21.8
      vertex 1.2 -21.2 21.8
      vertex -6.4 -10.5 21.8
    endloop
  endfacet
  facet normal -0 0 1
    outer loop
      vertex -6.89655 -12.0282 21.8
      vertex 1.2 -21.2 21.8
      vertex -6.52725 -11.3034 21.8
    endloop
  endfacet
  facet normal -0 0 1
    outer loop
      vertex -7.47176 -12.6034 21.8
      vertex 1.2 -21.2 21.8
      vertex -6.89655 -12.0282 21.8
    endloop
  endfacet
  facet normal -0 0 1
    outer loop
      vertex -8.19656 -12.9727 21.8
      vertex 1.2 -21.2 21.8
      vertex -7.47176 -12.6034 21.8
    endloop
  endfacet
  facet normal -0 0 1
    outer loop
      vertex -9 -13.1 21.8
      vertex 1.2 -21.2 21.8
      vertex -8.19656 -12.9727 21.8
    endloop
  endfacet
  facet normal 0 0 1
    outer loop
      vertex -9.80344 -12.9727 21.8
      vertex 1.2 -21.2 21.8
      vertex -9 -13.1 21.8
    endloop
  endfacet
  facet normal 0 0 1
    outer loop
      vertex -24.7865 -16.8817 21.8
      vertex -9.80344 -12.9727 21.8
      vertex -10.5282 -12.6034 21.8
    endloop
  endfacet
  facet normal 0 0 1
    outer loop
      vertex -11.4727 -9.69656 21.8
      vertex -24.5 -16 21.8
      vertex -11.6 -10.5 21.8
    endloop
  endfacet
  facet normal 0 0 1
    outer loop
      vertex -11.6 -10.5 21.8
      vertex -24.5 -16 21.8
      vertex -11.4727 -11.3034 21.8
    endloop
  endfacet
  facet normal 0 0 1
    outer loop
      vertex -24.5 -16 21.8
      vertex -11.1034 -12.0282 21.8
      vertex -11.4727 -11.3034 21.8
    endloop
  endfacet
  facet normal 0 0 1
    outer loop
      vertex -24.5734 -16.4635 21.8
      vertex -11.1034 -12.0282 21.8
      vertex -24.5 -16 21.8
    endloop
  endfacet
  facet normal 0 0 1
    outer loop
      vertex -11.1034 -12.0282 21.8
      vertex -24.5734 -16.4635 21.8
      vertex -10.5282 -12.6034 21.8
    endloop
  endfacet
  facet normal 0 0 1
    outer loop
      vertex -24.7865 -16.8817 21.8
      vertex -10.5282 -12.6034 21.8
      vertex -24.5734 -16.4635 21.8
    endloop
  endfacet
  facet normal 0 0 1
    outer loop
      vertex -9.80344 -12.9727 21.8
      vertex -24.7865 -16.8817 21.8
      vertex -25.1183 -17.2135 21.8
    endloop
  endfacet
  facet normal 0 0 1
    outer loop
      vertex -9.80344 -12.9727 21.8
      vertex -25.1183 -17.2135 21.8
      vertex 1.2 -21.2 21.8
    endloop
  endfacet
  facet normal -0 0 1
    outer loop
      vertex -25.5365 -17.4266 21.8
      vertex 1.2 -21.2 21.8
      vertex -25.1183 -17.2135 21.8
    endloop
  endfacet
  facet normal 0 0 1
    outer loop
      vertex -31.2 -21.2 21.8
      vertex -25.5365 -17.4266 21.8
      vertex -26 -17.5 21.8
    endloop
  endfacet
  facet normal 0 0 1
    outer loop
      vertex -25.5365 -17.4266 21.8
      vertex -31.2 -21.2 21.8
      vertex 1.2 -21.2 21.8
    endloop
  endfacet
  facet normal 0 0 1
    outer loop
      vertex -26.4635 -17.4266 21.8
      vertex -31.2 -21.2 21.8
      vertex -26 -17.5 21.8
    endloop
  endfacet
  facet normal 0 0 1
    outer loop
      vertex -26.8817 -17.2135 21.8
      vertex -31.2 -21.2 21.8
      vertex -26.4635 -17.4266 21.8
    endloop
  endfacet
  facet normal 0 0 1
    outer loop
      vertex -27.2135 -16.8817 21.8
      vertex -31.2 -21.2 21.8
      vertex -26.8817 -17.2135 21.8
    endloop
  endfacet
  facet normal 0 0 1
    outer loop
      vertex -27.4266 -16.4635 21.8
      vertex -31.2 -21.2 21.8
      vertex -27.2135 -16.8817 21.8
    endloop
  endfacet
  facet normal 0 0 1
    outer loop
      vertex -27.5 -16 21.8
      vertex -31.2 -21.2 21.8
      vertex -27.4266 -16.4635 21.8
    endloop
  endfacet
  facet normal 0 0 1
    outer loop
      vertex -27.4266 -15.5365 21.8
      vertex -31.2 -21.2 21.8
      vertex -27.5 -16 21.8
    endloop
  endfacet
  facet normal 1 -0 0
    outer loop
      vertex 1.2 -21.2 21.8
      vertex 1.2 21.2 20.6
      vertex 1.2 21.2 21.8
    endloop
  endfacet
  facet normal 1 0 0
    outer loop
      vertex 1.2 21.2 20.6
      vertex 1.2 -21.2 21.8
      vertex 1.2 -21.2 20.6
    endloop
  endfacet
  facet normal -0 0 -1
    outer loop
      vertex -11.6 -10.5 20.6
      vertex -25.1183 -14.7865 20.6
      vertex -11.4727 -9.69656 20.6
    endloop
  endfacet
  facet normal 0 0 -1
    outer loop
      vertex -11.1034 -8.97176 20.6
      vertex -24.5734 15.5365 20.6
      vertex -24.5 16 20.6
    endloop
  endfacet
  facet normal 0 0 -1
    outer loop
      vertex -25.5365 -14.5734 20.6
      vertex -11.4727 -9.69656 20.6
      vertex -25.1183 -14.7865 20.6
    endloop
  endfacet
  facet normal 0 0 -1
    outer loop
      vertex -11.1034 -8.97176 20.6
      vertex -24.7865 15.1183 20.6
      vertex -24.5734 15.5365 20.6
    endloop
  endfacet
  facet normal -0 0 -1
    outer loop
      vertex -11.4727 -9.69656 20.6
      vertex -25.5365 -14.5734 20.6
      vertex -11.1034 -8.97176 20.6
    endloop
  endfacet
  facet normal 0 0 -1
    outer loop
      vertex -11.1034 -8.97176 20.6
      vertex -25.1183 14.7865 20.6
      vertex -24.7865 15.1183 20.6
    endloop
  endfacet
  facet normal 0 0 -1
    outer loop
      vertex -25.5365 14.5734 20.6
      vertex -11.1034 -8.97176 20.6
      vertex -25.5365 -14.5734 20.6
    endloop
  endfacet
  facet normal 0 0 -1
    outer loop
      vertex -11.1034 -8.97176 20.6
      vertex -25.5365 14.5734 20.6
      vertex -25.1183 14.7865 20.6
    endloop
  endfacet
  facet normal 0 0 -1
    outer loop
      vertex -26 -14.5 20.6
      vertex -25.5365 14.5734 20.6
      vertex -25.5365 -14.5734 20.6
    endloop
  endfacet
  facet normal 0 0 -1
    outer loop
      vertex -26 -14.5 20.6
      vertex -26 14.5 20.6
      vertex -25.5365 14.5734 20.6
    endloop
  endfacet
  facet normal 0 0 -1
    outer loop
      vertex -26.4635 -14.5734 20.6
      vertex -26 14.5 20.6
      vertex -26 -14.5 20.6
    endloop
  endfacet
  facet normal 0 0 -1
    outer loop
      vertex -26.4635 -14.5734 20.6
      vertex -26.4635 14.5734 20.6
      vertex -26 14.5 20.6
    endloop
  endfacet
  facet normal 0 0 -1
    outer loop
      vertex -26.8817 -14.7865 20.6
      vertex -26.4635 14.5734 20.6
      vertex -26.4635 -14.5734 20.6
    endloop
  endfacet
  facet normal 0 0 -1
    outer loop
      vertex -26.8817 -14.7865 20.6
      vertex -26.8817 14.7865 20.6
      vertex -26.4635 14.5734 20.6
    endloop
  endfacet
  facet normal 0 0 -1
    outer loop
      vertex -27.2135 -15.1183 20.6
      vertex -26.8817 14.7865 20.6
      vertex -26.8817 -14.7865 20.6
    endloop
  endfacet
  facet normal 0 0 -1
    outer loop
      vertex -27.2135 -15.1183 20.6
      vertex -27.2135 15.1183 20.6
      vertex -26.8817 14.7865 20.6
    endloop
  endfacet
  facet normal 0 0 -1
    outer loop
      vertex -27.4266 -15.5365 20.6
      vertex -27.2135 15.1183 20.6
      vertex -27.2135 -15.1183 20.6
    endloop
  endfacet
  facet normal 0 0 -1
    outer loop
      vertex -27.4266 -15.5365 20.6
      vertex -27.4266 15.5365 20.6
      vertex -27.2135 15.1183 20.6
    endloop
  endfacet
  facet normal 0 0 -1
    outer loop
      vertex -31.2 -21.2 20.6
      vertex -27.4266 -15.5365 20.6
      vertex -27.5 -16 20.6
    endloop
  endfacet
  facet normal -0 0 -1
    outer loop
      vertex -27.4266 -15.5365 20.6
      vertex -31.2 -21.2 20.6
      vertex -27.4266 15.5365 20.6
    endloop
  endfacet
  facet normal 0 0 -1
    outer loop
      vertex -6.52725 -9.69656 20.6
      vertex 1.2 -21.2 20.6
      vertex -6.4 -10.5 20.6
    endloop
  endfacet
  facet normal 0 0 -1
    outer loop
      vertex 1.2 -21.2 20.6
      vertex -6.52725 -11.3034 20.6
      vertex -6.4 -10.5 20.6
    endloop
  endfacet
  facet normal 0 0 -1
    outer loop
      vertex 1.2 -21.2 20.6
      vertex -6.89655 -12.0282 20.6
      vertex -6.52725 -11.3034 20.6
    endloop
  endfacet
  facet normal 0 0 -1
    outer loop
      vertex 1.2 -21.2 20.6
      vertex -7.47176 -12.6034 20.6
      vertex -6.89655 -12.0282 20.6
    endloop
  endfacet
  facet normal 0 0 -1
    outer loop
      vertex 1.2 -21.2 20.6
      vertex -8.19656 -12.9727 20.6
      vertex -7.47176 -12.6034 20.6
    endloop
  endfacet
  facet normal 0 0 -1
    outer loop
      vertex 1.2 -21.2 20.6
      vertex -9 -13.1 20.6
      vertex -8.19656 -12.9727 20.6
    endloop
  endfacet
  facet normal 0 0 -1
    outer loop
      vertex 1.2 -21.2 20.6
      vertex -9.80344 -12.9727 20.6
      vertex -9 -13.1 20.6
    endloop
  endfacet
  facet normal 0 0 -1
    outer loop
      vertex -25.1183 -17.2135 20.6
      vertex -9.80344 -12.9727 20.6
      vertex 1.2 -21.2 20.6
    endloop
  endfacet
  facet normal 0 0 -1
    outer loop
      vertex -24.5734 -15.5365 20.6
      vertex -11.4727 -11.3034 20.6
      vertex -24.5 -16 20.6
    endloop
  endfacet
  facet normal -0 0 -1
    outer loop
      vertex -11.1034 -12.0282 20.6
      vertex -24.5 -16 20.6
      vertex -11.4727 -11.3034 20.6
    endloop
  endfacet
  facet normal 0 0 -1
    outer loop
      vertex -24.5734 -16.4635 20.6
      vertex -11.1034 -12.0282 20.6
      vertex -10.5282 -12.6034 20.6
    endloop
  endfacet
  facet normal 0 -0 -1
    outer loop
      vertex -24.7865 -16.8817 20.6
      vertex -9.80344 -12.9727 20.6
      vertex -25.1183 -17.2135 20.6
    endloop
  endfacet
  facet normal 0 0 -1
    outer loop
      vertex -11.1034 -12.0282 20.6
      vertex -24.5734 -16.4635 20.6
      vertex -24.5 -16 20.6
    endloop
  endfacet
  facet normal 0 0 -1
    outer loop
      vertex -10.5282 -12.6034 20.6
      vertex -24.7865 -16.8817 20.6
      vertex -24.5734 -16.4635 20.6
    endloop
  endfacet
  facet normal -0 0 -1
    outer loop
      vertex -9.80344 -12.9727 20.6
      vertex -24.7865 -16.8817 20.6
      vertex -10.5282 -12.6034 20.6
    endloop
  endfacet
  facet normal 0 0 -1
    outer loop
      vertex 1.2 -21.2 20.6
      vertex -25.5365 -17.4266 20.6
      vertex -25.1183 -17.2135 20.6
    endloop
  endfacet
  facet normal 0 0 -1
    outer loop
      vertex -31.2 -21.2 20.6
      vertex -25.5365 -17.4266 20.6
      vertex 1.2 -21.2 20.6
    endloop
  endfacet
  facet normal 0 0 -1
    outer loop
      vertex -31.2 21.2 20.6
      vertex -27.4266 15.5365 20.6
      vertex -31.2 -21.2 20.6
    endloop
  endfacet
  facet normal -0 0 -1
    outer loop
      vertex -27.4266 -16.4635 20.6
      vertex -31.2 -21.2 20.6
      vertex -27.5 -16 20.6
    endloop
  endfacet
  facet normal -0 0 -1
    outer loop
      vertex -27.2135 -16.8817 20.6
      vertex -31.2 -21.2 20.6
      vertex -27.4266 -16.4635 20.6
    endloop
  endfacet
  facet normal -0 0 -1
    outer loop
      vertex -26.8817 -17.2135 20.6
      vertex -31.2 -21.2 20.6
      vertex -27.2135 -16.8817 20.6
    endloop
  endfacet
  facet normal -0 0 -1
    outer loop
      vertex -26.4635 -17.4266 20.6
      vertex -31.2 -21.2 20.6
      vertex -26.8817 -17.2135 20.6
    endloop
  endfacet
  facet normal -0 0 -1
    outer loop
      vertex -26 -17.5 20.6
      vertex -31.2 -21.2 20.6
      vertex -26.4635 -17.4266 20.6
    endloop
  endfacet
  facet normal 0 0 -1
    outer loop
      vertex -25.5365 -17.4266 20.6
      vertex -31.2 -21.2 20.6
      vertex -26 -17.5 20.6
    endloop
  endfacet
  facet normal 0 0 -1
    outer loop
      vertex 1.2 -21.2 20.6
      vertex -6.52725 -9.69656 20.6
      vertex 1.2 21.2 20.6
    endloop
  endfacet
  facet normal 0 0 -1
    outer loop
      vertex -6.89655 -8.97176 20.6
      vertex 1.2 21.2 20.6
      vertex -6.52725 -9.69656 20.6
    endloop
  endfacet
  facet normal 0 0 -1
    outer loop
      vertex -7.47176 -8.39655 20.6
      vertex 1.2 21.2 20.6
      vertex -6.89655 -8.97176 20.6
    endloop
  endfacet
  facet normal 0 0 -1
    outer loop
      vertex -8.19656 -8.02725 20.6
      vertex 1.2 21.2 20.6
      vertex -7.47176 -8.39655 20.6
    endloop
  endfacet
  facet normal 0 0 -1
    outer loop
      vertex -9 -7.9 20.6
      vertex 1.2 21.2 20.6
      vertex -8.19656 -8.02725 20.6
    endloop
  endfacet
  facet normal 0 0 -1
    outer loop
      vertex -24.5 16 20.6
      vertex -9 -7.9 20.6
      vertex -9.80344 -8.02725 20.6
    endloop
  endfacet
  facet normal 0 0 -1
    outer loop
      vertex -24.5 16 20.6
      vertex -9.80344 -8.02725 20.6
      vertex -10.5282 -8.39655 20.6
    endloop
  endfacet
  facet normal 0 0 -1
    outer loop
      vertex -24.5 16 20.6
      vertex -10.5282 -8.39655 20.6
      vertex -11.1034 -8.97176 20.6
    endloop
  endfacet
  facet normal -0 0 -1
    outer loop
      vertex -11.4727 -11.3034 20.6
      vertex -24.7865 -15.1183 20.6
      vertex -11.6 -10.5 20.6
    endloop
  endfacet
  facet normal 0 0 -1
    outer loop
      vertex -24.7865 -15.1183 20.6
      vertex -11.4727 -11.3034 20.6
      vertex -24.5734 -15.5365 20.6
    endloop
  endfacet
  facet normal 0 0 -1
    outer loop
      vertex -25.1183 -14.7865 20.6
      vertex -11.6 -10.5 20.6
      vertex -24.7865 -15.1183 20.6
    endloop
  endfacet
  facet normal 0 0 -1
    outer loop
      vertex -9 -7.9 20.6
      vertex -24.5 16 20.6
      vertex 1.2 21.2 20.6
    endloop
  endfacet
  facet normal 0 0 -1
    outer loop
      vertex -24.5734 16.4635 20.6
      vertex 1.2 21.2 20.6
      vertex -24.5 16 20.6
    endloop
  endfacet
  facet normal 0 0 -1
    outer loop
      vertex -24.7865 16.8817 20.6
      vertex 1.2 21.2 20.6
      vertex -24.5734 16.4635 20.6
    endloop
  endfacet
  facet normal 0 0 -1
    outer loop
      vertex -25.1183 17.2135 20.6
      vertex 1.2 21.2 20.6
      vertex -24.7865 16.8817 20.6
    endloop
  endfacet
  facet normal 0 0 -1
    outer loop
      vertex -25.5365 17.4266 20.6
      vertex 1.2 21.2 20.6
      vertex -25.1183 17.2135 20.6
    endloop
  endfacet
  facet normal 0 0 -1
    outer loop
      vertex -31.2 21.2 20.6
      vertex -25.5365 17.4266 20.6
      vertex -26 17.5 20.6
    endloop
  endfacet
  facet normal 0 0 -1
    outer loop
      vertex -25.5365 17.4266 20.6
      vertex -31.2 21.2 20.6
      vertex 1.2 21.2 20.6
    endloop
  endfacet
  facet normal 0 0 -1
    outer loop
      vertex -26.4635 17.4266 20.6
      vertex -31.2 21.2 20.6
      vertex -26 17.5 20.6
    endloop
  endfacet
  facet normal 0 0 -1
    outer loop
      vertex -26.8817 17.2135 20.6
      vertex -31.2 21.2 20.6
      vertex -26.4635 17.4266 20.6
    endloop
  endfacet
  facet normal 0 0 -1
    outer loop
      vertex -27.2135 16.8817 20.6
      vertex -31.2 21.2 20.6
      vertex -26.8817 17.2135 20.6
    endloop
  endfacet
  facet normal 0 0 -1
    outer loop
      vertex -27.4266 16.4635 20.6
      vertex -31.2 21.2 20.6
      vertex -27.2135 16.8817 20.6
    endloop
  endfacet
  facet normal 0 0 -1
    outer loop
      vertex -27.5 16 20.6
      vertex -31.2 21.2 20.6
      vertex -27.4266 16.4635 20.6
    endloop
  endfacet
  facet normal 0 0 -1
    outer loop
      vertex -27.4266 15.5365 20.6
      vertex -31.2 21.2 20.6
      vertex -27.5 16 20.6
    endloop
  endfacet
  facet normal 0 -1 0
    outer loop
      vertex -31.2 -21.2 20.6
      vertex 1.2 -21.2 21.8
      vertex -31.2 -21.2 21.8
    endloop
  endfacet
  facet normal 0 -1 -0
    outer loop
      vertex 1.2 -21.2 21.8
      vertex -31.2 -21.2 20.6
      vertex 1.2 -21.2 20.6
    endloop
  endfacet
  facet normal 0 1 -0
    outer loop
      vertex 1.2 21.2 20.6
      vertex -31.2 21.2 21.8
      vertex 1.2 21.2 21.8
    endloop
  endfacet
  facet normal 0 1 0
    outer loop
      vertex -31.2 21.2 21.8
      vertex 1.2 21.2 20.6
      vertex -31.2 21.2 20.6
    endloop
  endfacet
  facet normal -0.987688 -0.156434 0
    outer loop
      vertex -6.4 -10.5 20.6
      vertex -6.52725 -9.69656 21.8
      vertex -6.52725 -9.69656 20.6
    endloop
  endfacet
  facet normal -0.987688 -0.156434 0
    outer loop
      vertex -6.52725 -9.69656 21.8
      vertex -6.4 -10.5 20.6
      vertex -6.4 -10.5 21.8
    endloop
  endfacet
  facet normal 0.987688 -0.156434 0
    outer loop
      vertex -11.6 -10.5 21.8
      vertex -11.4727 -9.69656 20.6
      vertex -11.4727 -9.69656 21.8
    endloop
  endfacet
  facet normal 0.987688 -0.156434 0
    outer loop
      vertex -11.4727 -9.69656 20.6
      vertex -11.6 -10.5 21.8
      vertex -11.6 -10.5 20.6
    endloop
  endfacet
  facet normal 0.156434 -0.987688 0
    outer loop
      vertex -9.80344 -8.02725 20.6
      vertex -9 -7.9 21.8
      vertex -9.80344 -8.02725 21.8
    endloop
  endfacet
  facet normal 0.156434 -0.987688 0
    outer loop
      vertex -9 -7.9 21.8
      vertex -9.80344 -8.02725 20.6
      vertex -9 -7.9 20.6
    endloop
  endfacet
  facet normal -0.156434 0.987688 0
    outer loop
      vertex -8.19656 -12.9727 20.6
      vertex -9 -13.1 21.8
      vertex -8.19656 -12.9727 21.8
    endloop
  endfacet
  facet normal -0.156434 0.987688 0
    outer loop
      vertex -9 -13.1 21.8
      vertex -8.19656 -12.9727 20.6
      vertex -9 -13.1 20.6
    endloop
  endfacet
  facet normal -0.891006 0.453991 0
    outer loop
      vertex -6.89655 -12.0282 20.6
      vertex -6.52725 -11.3034 21.8
      vertex -6.52725 -11.3034 20.6
    endloop
  endfacet
  facet normal -0.891006 0.453991 0
    outer loop
      vertex -6.52725 -11.3034 21.8
      vertex -6.89655 -12.0282 20.6
      vertex -6.89655 -12.0282 21.8
    endloop
  endfacet
  facet normal -0.453991 -0.891006 0
    outer loop
      vertex -8.19656 -8.02725 20.6
      vertex -7.47176 -8.39655 21.8
      vertex -8.19656 -8.02725 21.8
    endloop
  endfacet
  facet normal -0.453991 -0.891006 -0
    outer loop
      vertex -7.47176 -8.39655 21.8
      vertex -8.19656 -8.02725 20.6
      vertex -7.47176 -8.39655 20.6
    endloop
  endfacet
  facet normal -0.891006 -0.453991 0
    outer loop
      vertex -6.52725 -9.69656 20.6
      vertex -6.89655 -8.97176 21.8
      vertex -6.89655 -8.97176 20.6
    endloop
  endfacet
  facet normal -0.891006 -0.453991 0
    outer loop
      vertex -6.89655 -8.97176 21.8
      vertex -6.52725 -9.69656 20.6
      vertex -6.52725 -9.69656 21.8
    endloop
  endfacet
  facet normal -0.156434 -0.987688 0
    outer loop
      vertex -9 -7.9 20.6
      vertex -8.19656 -8.02725 21.8
      vertex -9 -7.9 21.8
    endloop
  endfacet
  facet normal -0.156434 -0.987688 -0
    outer loop
      vertex -8.19656 -8.02725 21.8
      vertex -9 -7.9 20.6
      vertex -8.19656 -8.02725 20.6
    endloop
  endfacet
  facet normal 0.707107 -0.707107 0
    outer loop
      vertex -11.1034 -8.97176 21.8
      vertex -10.5282 -8.39655 20.6
      vertex -10.5282 -8.39655 21.8
    endloop
  endfacet
  facet normal 0.707107 -0.707107 0
    outer loop
      vertex -10.5282 -8.39655 20.6
      vertex -11.1034 -8.97176 21.8
      vertex -11.1034 -8.97176 20.6
    endloop
  endfacet
  facet normal 0.891006 -0.453991 0
    outer loop
      vertex -11.4727 -9.69656 21.8
      vertex -11.1034 -8.97176 20.6
      vertex -11.1034 -8.97176 21.8
    endloop
  endfacet
  facet normal 0.891006 -0.453991 0
    outer loop
      vertex -11.1034 -8.97176 20.6
      vertex -11.4727 -9.69656 21.8
      vertex -11.4727 -9.69656 20.6
    endloop
  endfacet
  facet normal 0.453991 -0.891006 0
    outer loop
      vertex -10.5282 -8.39655 20.6
      vertex -9.80344 -8.02725 21.8
      vertex -10.5282 -8.39655 21.8
    endloop
  endfacet
  facet normal 0.453991 -0.891006 0
    outer loop
      vertex -9.80344 -8.02725 21.8
      vertex -10.5282 -8.39655 20.6
      vertex -9.80344 -8.02725 20.6
    endloop
  endfacet
  facet normal -0.707107 -0.707107 0
    outer loop
      vertex -6.89655 -8.97176 20.6
      vertex -7.47176 -8.39655 21.8
      vertex -7.47176 -8.39655 20.6
    endloop
  endfacet
  facet normal -0.707107 -0.707107 0
    outer loop
      vertex -7.47176 -8.39655 21.8
      vertex -6.89655 -8.97176 20.6
      vertex -6.89655 -8.97176 21.8
    endloop
  endfacet
  facet normal -0.453991 0.891006 0
    outer loop
      vertex -7.47176 -12.6034 20.6
      vertex -8.19656 -12.9727 21.8
      vertex -7.47176 -12.6034 21.8
    endloop
  endfacet
  facet normal -0.453991 0.891006 0
    outer loop
      vertex -8.19656 -12.9727 21.8
      vertex -7.47176 -12.6034 20.6
      vertex -8.19656 -12.9727 20.6
    endloop
  endfacet
  facet normal -0.987688 0.156434 0
    outer loop
      vertex -6.52725 -11.3034 20.6
      vertex -6.4 -10.5 21.8
      vertex -6.4 -10.5 20.6
    endloop
  endfacet
  facet normal -0.987688 0.156434 0
    outer loop
      vertex -6.4 -10.5 21.8
      vertex -6.52725 -11.3034 20.6
      vertex -6.52725 -11.3034 21.8
    endloop
  endfacet
  facet normal 0.987688 0.156434 0
    outer loop
      vertex -11.4727 -11.3034 21.8
      vertex -11.6 -10.5 20.6
      vertex -11.6 -10.5 21.8
    endloop
  endfacet
  facet normal 0.987688 0.156434 0
    outer loop
      vertex -11.6 -10.5 20.6
      vertex -11.4727 -11.3034 21.8
      vertex -11.4727 -11.3034 20.6
    endloop
  endfacet
  facet normal -0.707107 0.707107 0
    outer loop
      vertex -7.47176 -12.6034 20.6
      vertex -6.89655 -12.0282 21.8
      vertex -6.89655 -12.0282 20.6
    endloop
  endfacet
  facet normal -0.707107 0.707107 0
    outer loop
      vertex -6.89655 -12.0282 21.8
      vertex -7.47176 -12.6034 20.6
      vertex -7.47176 -12.6034 21.8
    endloop
  endfacet
  facet normal 0.891006 0.453991 0
    outer loop
      vertex -11.1034 -12.0282 21.8
      vertex -11.4727 -11.3034 20.6
      vertex -11.4727 -11.3034 21.8
    endloop
  endfacet
  facet normal 0.891006 0.453991 0
    outer loop
      vertex -11.4727 -11.3034 20.6
      vertex -11.1034 -12.0282 21.8
      vertex -11.1034 -12.0282 20.6
    endloop
  endfacet
  facet normal 0.156434 0.987688 -0
    outer loop
      vertex -9 -13.1 20.6
      vertex -9.80344 -12.9727 21.8
      vertex -9 -13.1 21.8
    endloop
  endfacet
  facet normal 0.156434 0.987688 0
    outer loop
      vertex -9.80344 -12.9727 21.8
      vertex -9 -13.1 20.6
      vertex -9.80344 -12.9727 20.6
    endloop
  endfacet
  facet normal 0.707107 0.707107 0
    outer loop
      vertex -10.5282 -12.6034 21.8
      vertex -11.1034 -12.0282 20.6
      vertex -11.1034 -12.0282 21.8
    endloop
  endfacet
  facet normal 0.707107 0.707107 0
    outer loop
      vertex -11.1034 -12.0282 20.6
      vertex -10.5282 -12.6034 21.8
      vertex -10.5282 -12.6034 20.6
    endloop
  endfacet
  facet normal 0.453991 0.891006 -0
    outer loop
      vertex -9.80344 -12.9727 20.6
      vertex -10.5282 -12.6034 21.8
      vertex -9.80344 -12.9727 21.8
    endloop
  endfacet
  facet normal 0.453991 0.891006 0
    outer loop
      vertex -10.5282 -12.6034 21.8
      vertex -9.80344 -12.9727 20.6
      vertex -10.5282 -12.6034 20.6
    endloop
  endfacet
endsolid OpenSCAD_Model
